<svg width="149" height="6" viewBox="0 0 149 6" fill="none" xmlns="http://www.w3.org/2000/svg">
<path d="M3.34725 0.222039C6.46414 -0.302321 8.59172 0.254821 11.4832 0.343617C17.8484 0.538698 26.2422 0.362996 32.7523 0.376942C37.6798 0.387509 42.6867 0.424929 47.5845 0.454942C47.8356 0.45642 47.9855 0.513905 48.0994 0.514633C49.1718 0.521396 50.97 0.469314 52.0338 0.476914C54.2715 0.492766 58.1651 0.483809 60.2147 0.537703C61.085 0.560524 61.9777 0.570037 62.316 0.706887C62.634 0.713857 62.8076 0.590207 62.8906 0.583478C62.8916 0.5836 62.8925 0.583722 62.8935 0.583844C63.1609 0.562971 63.8363 0.649667 63.9854 0.644267C64.0076 0.643422 63.8704 0.553862 64.232 0.580915C64.2642 0.583239 64.2345 0.644134 64.539 0.645C64.6182 0.645211 65.6365 0.551832 65.9275 0.546126C66.896 0.527541 69.2088 0.600848 70.3667 0.599591C70.5438 0.599591 70.6458 0.563971 70.8327 0.563337C70.9293 0.562969 71.0742 0.601633 71.1039 0.601422C71.2341 0.600047 71.8032 0.424454 71.5989 0.770972C72.1931 0.749002 72.018 0.634442 72.0315 0.560041C72.6765 0.549298 72.9873 0.712495 73.1558 0.539534C76.3276 0.560408 79.4994 0.581281 82.6712 0.602154C82.6721 0.573957 82.6731 0.54576 82.674 0.517562C83.6089 0.630188 83.9296 0.439682 84.4633 0.603253C84.7924 0.567243 85.1215 0.531234 85.4506 0.495224C93.9085 0.606179 102.347 0.474296 110.709 0.474717C111.062 0.474717 111.15 0.534717 111.732 0.53514C112.375 0.53556 113.279 0.465829 114.126 0.46666C114.869 0.467294 115.965 0.524056 116.793 0.532943C116.98 0.534845 117.116 0.496844 117.137 0.497055C117.26 0.49854 117.267 0.558702 117.387 0.560408C117.53 0.56231 117.704 0.517744 117.87 0.520492C118.49 0.530417 119.166 0.515056 119.244 0.516098C119.622 0.521793 119.706 0.580631 119.737 0.581281C120.158 0.588462 120 0.535355 120.105 0.538436C120.648 0.55471 121.033 0.687278 121.777 0.560041C121.757 0.609234 121.736 0.658427 121.716 0.70762C122.286 0.735299 121.91 0.604586 122.026 0.580915C122.073 0.572145 123.299 0.588108 123.394 0.590436C123.723 0.598888 123.732 0.66426 123.761 0.665141C123.83 0.667254 124.659 0.59306 125.083 0.650126C125.586 0.717752 124.994 0.850734 125.119 0.875705C125.14 0.879932 125.666 0.866303 125.737 0.907931C125.815 0.952718 125.36 0.951768 125.367 0.970551C125.372 0.983443 126.127 1.07577 125.982 1.1379C125.866 1.20023 124.841 1.12032 124.624 1.14962C124.588 1.15447 124.656 1.23139 124.624 1.23422C124.497 1.24457 122.135 1.24688 122.027 1.23422C122.15 1.19918 122.273 1.16415 122.396 1.12912C122.232 1.12558 122.069 1.12204 121.905 1.1185C122.138 1.09042 122.37 1.06235 122.603 1.03427C122.257 0.745808 121.217 1.03823 121.174 1.18221C121.155 1.24879 121.791 1.42009 121.199 1.51985C121.289 1.53694 121.379 1.55403 121.469 1.57112C121.655 1.54304 121.84 1.51497 122.026 1.48689C121.902 1.46919 121.779 1.45149 121.655 1.43379C121.701 1.41377 121.746 1.39376 121.792 1.37374C122.138 1.34163 122.485 1.30953 122.832 1.27743C123.01 1.29222 122.973 1.35132 123.096 1.36275C124.624 1.50668 123.627 1.32353 124.627 1.34993C124.77 1.38167 124.913 1.41341 125.056 1.44515C125.006 1.31389 125.449 1.3963 125.985 1.33968C125.921 1.38216 125.857 1.42464 125.793 1.46712C126.569 1.4445 128.143 1.65867 127.718 1.42427C127.896 1.44429 128.074 1.46431 128.252 1.48433C128.402 1.446 128.553 1.40767 128.703 1.36934C128.91 1.37374 129.118 1.37813 129.326 1.38253C129.327 1.40328 129.328 1.42403 129.329 1.44478C129.163 1.4449 128.997 1.44502 128.832 1.44515C128.956 1.50838 129.08 1.57161 129.205 1.63484C129.327 1.62434 129.449 1.61384 129.571 1.60334C129.059 1.54354 129.735 1.44586 129.898 1.36238C130.33 1.33153 130.606 1.4399 130.751 1.44478C130.819 1.4471 131.622 1.25593 131.307 1.46602C131.72 1.44051 132.133 1.415 132.546 1.38948C132.707 1.4056 132.868 1.42171 133.03 1.43782C132.68 1.53568 133.695 1.65358 132.947 1.69416C132.388 1.7246 132.251 1.6331 131.986 1.63374C131.747 1.63419 131.621 1.69581 131.361 1.69856C129.612 1.71589 128.188 1.70458 126.527 1.67732C126.199 1.67184 125.9 1.70205 125.68 1.69782C125.431 1.69295 125.743 1.61566 125.426 1.63447C125.093 1.65436 125.021 1.71743 124.933 1.7187C124.879 1.71941 124.705 1.66267 124.546 1.66267C123.89 1.66268 122.929 1.71755 122.836 1.71723C122.731 1.7166 120.876 1.6654 120.787 1.65608C120.74 1.651 120.838 1.44146 120.429 1.66487C120.302 1.66902 120.174 1.67317 120.047 1.67732C120.067 1.63545 120.088 1.59358 120.109 1.55171C119.353 1.71043 119.613 1.62164 118.885 1.63411C117.141 1.66411 114.569 1.62883 112.662 1.64363C112.236 1.64701 112.074 1.69715 111.57 1.70075C111.102 1.70392 109.88 1.55433 110.146 1.76154C109.105 1.58212 108.937 1.89152 108.416 1.69856C108.353 1.72663 108.29 1.75471 108.227 1.78278C107.661 1.66231 107.486 1.76819 106.868 1.78278C106.602 1.78912 106.909 1.66099 106.371 1.80366C106.269 1.79304 106.166 1.78242 106.063 1.7718C106.087 1.74079 106.111 1.70979 106.135 1.67878C105.538 1.70414 105.5 1.68799 105.568 1.80402C105.279 1.7829 104.991 1.76179 104.703 1.74067C104.667 1.77875 104.631 1.81684 104.596 1.85492C104.734 1.92757 111.277 1.81802 112.188 1.78315C113.257 1.86935 115.404 1.76158 116.267 1.78205C116.613 1.79029 116.765 1.87643 117.268 1.88678C117.771 1.89713 118.403 1.8189 118.671 1.81611C119.562 1.80638 123.787 1.82357 120.914 1.93073C120.996 1.97272 121.079 2.01471 121.161 2.0567C122.303 1.91341 121.89 2.00162 122.837 2.01642C123.236 2.02273 124.184 1.92896 124.131 2.11969C123.391 2.15519 122.604 2.09423 121.96 2.09698C121.896 2.09728 121.134 2.18436 120.741 2.1607C120.387 2.1391 120.631 1.95729 119.861 2.16143C119.289 1.96202 118.958 2.14293 118.807 2.16217C118.546 2.19551 118.517 2.09709 118.256 2.08563C117.972 2.07297 117.776 2.1383 117.737 2.13873C117.348 2.14021 115.317 2.14911 115.223 2.10943C115.305 2.09198 115.387 2.07452 115.468 2.05707C114.941 2.02897 115.051 2.12961 114.913 2.14166C114.809 2.14129 114.706 2.14093 114.603 2.14056C114.644 2.11969 114.685 2.09881 114.726 2.07794C114.103 2.08238 114.579 2.15491 113.695 2.15301C113.134 2.15173 112.554 2.07205 112.499 2.07794C112.483 2.07963 112.66 2.13335 112.431 2.14056C112.052 2.15239 111.397 2.15103 111.324 2.07794C111.138 2.08828 111.154 2.1598 111.129 2.16143C111.022 2.16841 109.168 2.19272 108.836 2.19695C107.916 2.20858 106.891 2.19333 105.894 2.20538C105.792 2.20658 105.857 2.16069 105.755 2.16217C105.59 2.16452 104.743 2.23654 104.617 2.24163C104.301 2.25409 103.471 2.22552 103.34 2.24639C103.322 2.24935 103.595 2.31138 103.275 2.33062C102.921 2.3519 103.112 2.26846 103.092 2.26763C102.37 2.2391 101.915 2.29707 101.422 2.30828C101.262 2.31187 100.967 2.24908 100.742 2.26763C100.716 2.26974 100.767 2.32776 100.742 2.33062C100.401 2.36105 100.083 2.25337 99.9354 2.24639C99.5749 2.22934 99.7712 2.30881 99.7524 2.30938C99.5122 2.31191 99.1889 2.28324 98.8237 2.28704C97.1952 2.30395 95.8663 2.3088 94.135 2.30352C93.9176 2.30288 93.6596 2.24683 93.6263 2.24676C93.5235 2.24718 93.5529 2.31305 93.2557 2.31157C92.6291 2.30819 92.0482 2.31138 91.4278 2.31011C91.3029 2.30984 91.2496 2.24881 91.1544 2.24749C90.835 2.24369 89.7456 2.40351 89.7277 2.20464C89.0937 2.38069 88.6726 2.22896 88.1624 2.23064C86.9537 2.23445 85.0612 2.27032 83.8563 2.24749C83.6026 2.2426 83.4836 2.19164 83.3424 2.1889C83.0894 2.18384 81.6424 2.2123 81.5668 2.20428C81.4182 2.18885 81.5073 1.96446 80.7432 2.15997C80.2952 2.1739 80.3482 2.08181 80.2555 2.07684C79.5335 2.03985 78.8312 2.24538 78.9624 2.05707C78.1218 2.1082 77.577 2.21227 77.234 2.03619C77.2384 2.12212 76.8431 2.17367 76.3666 2.14093C76.8545 1.99658 76.7941 1.90433 77.974 1.93073C77.9926 1.93115 77.9571 1.99329 77.9757 1.99371C78.1442 1.99791 78.4957 1.96654 78.7828 1.96991C79.07 1.97329 78.9106 2.01577 79.0255 2.01495C79.1308 2.01411 79.1273 1.95464 79.2796 1.9538C79.7737 1.95147 80.2109 1.93508 80.492 1.93402C80.669 1.93341 80.8672 1.98566 81.0047 1.98566C81.5359 1.98523 82.6618 1.94443 83.3379 1.95014C83.4788 1.95147 83.4196 2.01009 83.7278 2.01495C83.7638 2.01552 83.8951 1.95439 84.1649 1.94171C84.4348 1.92904 84.6441 1.95939 84.8174 1.95307C84.9623 1.94778 84.9017 1.89347 85.1988 1.89008C85.4465 1.88733 88.2516 1.92646 88.404 1.93512C88.6231 1.94761 88.7272 2.02388 88.8609 2.01459C88.8845 2.01259 88.9243 1.93893 89.0059 1.93366C90.3508 1.8466 93.3275 1.9471 94.8643 1.94647C98.0765 1.94542 101.04 1.90207 104.281 1.88495C104.339 1.87213 104.396 1.85932 104.454 1.8465C104.127 1.84601 103.799 1.84552 103.471 1.84504C103.469 1.81037 103.467 1.7757 103.465 1.74104C103.022 1.73555 103.081 1.81753 103.093 1.86701C102.93 1.84601 102.766 1.82502 102.602 1.80402C102.46 1.92483 101.367 1.84448 100.804 1.84467C100.437 1.84467 100.001 1.89072 99.8081 1.88715C99.3998 1.87976 99.4105 1.80521 99.3784 1.80402C99.3239 1.80233 98.7539 1.86808 98.3428 1.86554C97.735 1.86192 97.6692 1.74746 96.8372 1.84467C95.771 1.78528 94.5896 1.81517 93.4405 1.8249C93.6593 1.71909 92.6294 1.81923 92.165 1.81757C89.3316 1.80721 85.8492 1.76201 82.9787 1.72016C82.6098 1.71488 82.3311 1.65255 82.1255 1.65461C82.0141 1.65567 81.9654 1.72915 81.8106 1.71943C81.7834 1.71756 81.7645 1.64885 81.4764 1.6385C80.7594 1.6125 78.9734 1.72717 78.5214 1.59529C76.0699 1.61567 73.6184 1.63606 71.167 1.65644C71.1054 1.62837 71.0438 1.60029 70.9822 1.57222C70.5165 1.71569 68.6755 1.63138 67.7776 1.63813C66.1975 1.65018 64.1814 1.69479 62.7969 1.69965C62.496 1.70071 62.2495 1.66001 61.9647 1.66084C61.8422 1.66126 61.6898 1.71403 61.5623 1.7143C60.1307 1.71832 58.1925 1.66396 56.7498 1.66523C53.4743 1.66798 50.3895 1.65998 47.0706 1.6623C35.8906 1.67055 24.7749 1.74815 13.6902 1.71687C13.5416 1.71644 13.5491 1.65577 13.4339 1.65534C12.754 1.65239 11.2358 1.7024 10.468 1.69965C9.85628 1.69754 8.88529 1.60477 8.67477 1.69819C10.8481 1.83959 13.1443 1.82895 15.4068 1.86847C15.5676 1.87126 15.5876 1.92894 15.6074 1.92999C15.9737 1.95004 15.7424 1.8706 16.2736 1.86701C16.4511 1.8658 18.0909 2.04994 17.8958 1.86664C18.2885 1.93997 21.0566 1.97662 21.5909 1.95233C21.7531 1.94494 21.6382 1.89063 21.6704 1.88788C21.8103 1.87589 21.8734 1.95076 21.9984 1.9527C22.3315 1.95735 23.1788 1.89661 23.3398 1.89704C23.7102 1.89769 24.8207 1.95864 25.3098 1.94428C25.7581 1.93117 25.6742 1.85295 26.0618 1.84577C26.3673 1.84031 26.0345 1.9061 26.7166 1.92597C27.0546 1.93569 28.2372 1.88862 28.5246 1.88861C28.812 1.88861 29.1316 1.93542 29.5279 1.93183C30.0987 1.92675 31.3405 1.90069 31.9213 1.88568C31.956 1.88484 32.0405 1.82399 32.126 1.82526C32.303 1.82781 32.2498 1.90296 32.3834 1.91059C32.5172 1.91819 34.8332 1.90901 35.2265 1.90985C35.4977 1.91028 35.6849 1.86551 35.8347 1.86591C35.9523 1.86633 35.9649 1.92893 36.0848 1.92963C36.122 1.92963 36.438 1.87526 36.7538 1.87653C37.0522 1.8778 38.1851 1.92951 38.3163 1.92999C38.4018 1.93021 38.3081 1.88573 38.5607 1.88678C38.7909 1.88787 38.9422 1.94563 39.0734 1.94647C39.3779 1.94835 39.7183 1.8991 40.0414 1.89887C40.9701 1.89823 40.9223 1.96978 40.9781 1.97211C41.1326 1.97857 41.1945 1.91304 41.2452 1.91168C41.4594 1.90619 41.9842 1.89409 42.1751 1.89154C42.4129 1.88837 42.5136 1.95066 42.7662 1.95087C42.9545 1.95083 43.3347 1.89011 43.7643 1.88715C44.7327 1.88017 45.8843 1.86871 46.8353 1.87104C47.1189 1.87167 47.1624 1.92851 47.2491 1.92999C47.7047 1.9378 47.9597 1.87423 48.0898 1.87506C49.0173 1.88077 50.6718 1.9805 51.5325 1.98895C51.883 1.99233 53.4173 1.94629 54.2829 1.95453C54.382 1.95538 54.2893 1.99995 54.3995 1.99298C54.6631 1.97626 54.6386 1.8855 54.7723 1.88825C54.8368 1.88985 54.984 1.94102 55.1719 1.94611C56.1465 1.97253 56.8167 1.93274 57.2613 1.93549C61.5312 1.96191 65.8852 1.98568 69.8727 1.99371C70.3173 1.99456 70.8686 1.94056 71.5398 1.99298C71.5605 2.02118 71.5811 2.04938 71.6018 2.07757C71.6253 2.04986 71.6488 2.02215 71.6723 1.99445C72.4325 1.97944 72.7198 1.94377 73.4962 1.97907C73.5631 1.98202 73.7672 2.11075 73.8935 1.95087C74.6626 2.06669 74.2406 1.94993 74.8115 1.93915C75.3823 1.92837 75.937 1.96407 76.4905 1.97211C76.7939 2.02939 75.5208 2.16149 75.4378 2.16107C75.3042 2.16056 75.1653 2.08107 75.0366 2.07684C74.6553 2.0642 74.2865 2.12728 74.201 2.05633C73.7083 2.13135 74.3217 2.09387 74.2601 2.16143C73.9312 2.13348 73.6023 2.10553 73.2734 2.07757C73.1059 2.30738 71.2885 2.00769 71.4148 2.18267C71.2702 2.14764 71.1256 2.11261 70.9811 2.07757C70.3472 2.2971 69.9743 2.14252 69.1287 2.07721C69.1897 2.10528 69.2507 2.13336 69.3117 2.16143C69.2944 2.17315 68.5481 2.21804 68.815 2.09845C68.0499 2.25603 68.0821 1.99391 67.3963 2.1834C66.9888 2.20771 67.2338 2.09765 66.5045 2.09954C66.0723 2.1006 65.5358 2.15815 65.0528 2.16217C64.9415 2.16291 64.8932 2.09918 64.7942 2.09918C64.6952 2.0992 64.6469 2.16169 64.527 2.16326C64.2793 2.16665 63.9583 2.12278 63.8035 2.12701C63.6648 2.13062 63.4665 2.18573 63.1322 2.19439C61.9647 2.22502 62.3174 2.14632 62.133 2.11969C61.9348 2.09137 61.7924 2.19506 61.3975 2.18304C61.3578 2.18177 61.4603 2.11715 61.3315 2.11969C61.2276 2.12167 61.1754 2.19191 60.8314 2.20501C60.6944 2.2103 58.5675 2.22534 58.2435 2.22662C57.7469 2.22852 56.6407 2.16907 56.1268 2.16949C55.9287 2.1695 55.7171 2.22589 55.5067 2.22552C54.8095 2.22425 53.6933 2.21948 52.8091 2.21673C52.0129 2.21418 50.6152 2.0897 50.1792 2.20208C49.0612 2.21666 48.7896 2.12063 48.7053 2.11932C48.4775 2.11573 48.372 2.17935 48.0846 2.18231C44.3634 2.21929 39.4631 2.17723 35.9387 2.18231C27.7631 2.19456 19.5429 2.22933 11.3388 2.20355C11.3168 2.23174 11.2949 2.25994 11.2729 2.28814C12.2425 2.30631 13.3821 2.3553 14.3393 2.3665C15.6173 2.38128 17.5131 2.26386 18.4505 2.45659C18.0703 2.47349 17.451 2.39959 17.4621 2.4987C18.1417 2.50578 18.8213 2.51286 19.5009 2.51994C19.4806 2.47417 19.4603 2.42839 19.4401 2.38262C20.1496 2.3693 20.8754 2.37928 21.5874 2.37273C21.7111 2.37165 21.6235 2.3301 21.7313 2.32988C21.8518 2.32973 21.7701 2.37203 21.7926 2.37236C22.0972 2.37279 22.1892 2.33 22.2263 2.33062C22.3217 2.33231 22.2475 2.37304 22.5224 2.38445C23.0324 2.40577 23.3976 2.29757 23.2778 2.47783C23.4425 2.47783 23.6071 2.47783 23.7718 2.47783C23.8144 2.42876 23.857 2.37969 23.8997 2.33062C24.9124 2.52873 25.3794 2.18121 25.939 2.45696C26.1236 2.41484 26.3081 2.37273 26.4927 2.33062C26.5967 2.37969 26.7007 2.42876 26.8047 2.47783C26.825 2.43572 26.8452 2.3936 26.8655 2.35149C27.8598 2.38254 28.9185 2.33199 29.8695 2.33684C30.5319 2.34022 30.6906 2.35685 31.2774 2.35369C32.5825 2.3465 31.2864 2.43006 32.3709 2.52031C32.3145 2.46867 32.258 2.41704 32.2016 2.36541C32.3812 2.34649 32.5608 2.32757 32.7404 2.30865C32.8654 2.35076 32.9905 2.39287 33.1155 2.43498C33.6702 2.21655 34.0296 2.39287 34.1051 2.39287C34.1661 2.39249 34.3757 2.26099 35.0321 2.37236C34.7599 2.19258 35.5329 2.37131 35.5948 2.37236C35.6537 2.37309 36.4063 2.33296 36.7117 2.33465C36.952 2.33593 37.4645 2.37463 37.8224 2.37273C38.1383 2.37104 38.1062 2.31001 38.1293 2.30938C38.5182 2.3043 38.2745 2.35173 38.5556 2.35405C38.8367 2.35637 39.0548 2.30436 39.1155 2.30901C39.146 2.31149 39.0439 2.36834 39.1837 2.37383C39.5589 2.3888 40.2375 2.33903 40.6672 2.3405C40.8195 2.34096 41.0114 2.38919 41.181 2.39067C41.441 2.39277 41.5625 2.32871 41.7136 2.33062C41.7661 2.33145 42.1015 2.43041 42.5184 2.41521C42.5977 2.41216 42.8307 2.20276 43.1402 2.49944C43.1641 2.45769 43.188 2.41594 43.2118 2.37419C44.61 2.27084 44.999 2.60998 45.6207 2.30901C46.6358 2.34263 45.9389 2.45987 46.0504 2.47783C46.1224 2.48918 46.4534 2.45695 46.4897 2.45879C46.5541 2.46238 46.5431 2.50001 46.6137 2.4998C47.9077 2.49283 47.3332 2.42178 47.743 2.37676C48.7176 2.2696 49.478 2.5075 47.7828 2.43608C47.7828 2.45708 47.7828 2.47807 47.7828 2.49907C48.2002 2.479 49.2598 2.48853 48.906 2.59501C48.6274 2.67892 46.1136 2.62416 47.5373 2.74186C47.8605 2.76849 48.0279 2.6897 48.5877 2.83744C48.9578 2.84545 49.0112 2.65405 49.5124 2.73087C49.43 2.6641 49.3476 2.59733 49.2652 2.53056C49.9487 2.44353 50.7921 2.56028 51.3171 2.52287C51.4955 2.51012 52.1382 2.19179 51.9883 2.51005C52.2883 2.49021 53.701 2.54884 53.9635 2.52031C54.0266 2.51342 54.1089 2.34397 55.0224 2.40312C55.0859 2.42436 55.1494 2.4456 55.2128 2.46684C54.3773 2.52855 55.8529 2.59132 55.4521 2.75211C55.3159 2.67984 54.6533 2.63576 54.5467 2.59941C54.3646 2.53685 54.9069 2.45621 54.2159 2.4782C53.7803 2.74694 55.0257 2.62327 54.8354 2.87845C55.7426 2.75933 55.8333 2.87299 56.0387 2.87772C56.9166 2.89695 57.4691 2.8699 58.2975 2.89969C58.4993 2.84727 56.9997 2.77161 56.814 2.79423C57.4976 2.60844 56.321 2.60004 55.8244 2.71037C55.7827 2.65422 55.7411 2.59806 55.6994 2.54191C56.3458 2.57235 56.9763 2.58799 57.6165 2.54191C57.6582 2.56291 57.6999 2.58391 57.7416 2.6049C57.598 2.63652 57.4544 2.66813 57.3108 2.69975C57.8432 2.75152 57.5239 2.58778 58.2332 2.73124C58.2552 2.66801 58.2772 2.60478 58.2992 2.54155C58.9794 2.56254 59.6595 2.58354 60.3397 2.60453C60.6938 2.47774 62.0026 2.52497 61.763 2.68913C62.2912 2.70072 61.6391 2.61335 62.1341 2.57341C62.3496 2.55608 62.7707 2.55121 62.8747 2.59538C62.8299 2.7517 62.1997 2.7711 62.0091 2.87845C62.1248 2.91308 65.0555 2.80148 64.7942 2.98428C65.0282 3.00626 64.9206 2.91208 65.3427 2.88797C66.5253 2.82076 68.3572 3.0069 69.3095 2.77335C68.1912 2.64337 67.8605 2.78104 67.0035 2.78654C66.4561 2.79013 63.1188 2.81229 63.8643 2.64701C63.7417 2.66801 63.6191 2.689 63.4965 2.71C63.3726 2.66081 63.2487 2.61161 63.1248 2.56242C63.474 2.55534 63.8232 2.54826 64.1724 2.54118C64.2557 2.59025 64.3391 2.63932 64.4224 2.68839C64.4609 2.65336 64.4994 2.61833 64.5378 2.58329C64.6849 2.57634 64.8319 2.56938 64.9789 2.56242C64.9376 2.60453 64.8963 2.64665 64.855 2.68876C65.0816 2.69596 65.3082 2.70316 65.5348 2.71037C65.4738 2.65409 65.4128 2.59782 65.3518 2.54155C66.4189 2.5274 66.0575 2.56264 66.6494 2.66789C67.0913 2.67865 66.3448 2.57049 67.2797 2.54301C68.3669 2.51111 67.6537 2.68305 69.0616 2.64628C69.0819 2.61821 69.1022 2.59013 69.1225 2.56206C69.432 2.59013 69.7416 2.61821 70.0512 2.64628C70.0103 2.61137 69.9694 2.57646 69.9284 2.54155C70.5675 2.55507 71.448 2.48845 71.6598 2.62541C71.0121 2.55946 71.0184 2.7986 71.1869 2.84256C71.5345 2.93277 76.6704 2.84885 77.6659 2.84293C78.9389 2.83532 79.901 2.91192 81.0638 2.79423C80.2758 2.69769 77.5049 2.77678 76.9799 2.71C76.9279 2.70345 76.9425 2.48423 76.6082 2.73087C75.5309 2.68904 74.2431 2.75892 72.8971 2.75175C72.9383 2.68864 72.9794 2.62553 73.0205 2.56242C73.8477 2.69663 74.6134 2.40184 74.5057 2.64701C74.6703 2.64701 74.835 2.64701 74.9996 2.64701C74.9996 2.60478 74.9996 2.56254 74.9996 2.52031C75.2478 2.52031 75.496 2.52031 75.7442 2.52031C75.7442 2.56254 75.7442 2.60478 75.7442 2.64701C75.9498 2.64701 76.1553 2.64701 76.3609 2.64701C76.3823 2.6049 76.4037 2.56279 76.4251 2.52067C77.0407 2.60814 79.1393 2.37427 78.2167 2.62577C78.5058 2.62577 78.7949 2.62577 79.0841 2.62577C79.0831 2.59489 79.0822 2.56401 79.0812 2.53313C79.2055 2.52898 79.3298 2.52482 79.4541 2.52067C79.4132 2.54863 79.3722 2.57658 79.3313 2.60453C79.9009 2.55445 80.4408 2.70161 80.8148 2.6049C80.5681 2.58378 80.3214 2.56267 80.0748 2.54155C80.5479 2.58166 81.4194 2.49855 81.4974 2.49834C81.7352 2.49792 81.8605 2.56035 82.1181 2.56352C82.3506 2.56623 82.3186 2.51825 82.362 2.51994C83.6162 2.56878 83.1382 2.8285 83.7238 2.52104C83.7862 2.56303 83.8485 2.60502 83.9108 2.64701C83.9938 2.61198 84.0768 2.57695 84.1598 2.54191C84.5302 2.54521 84.9006 2.54851 85.271 2.5518C85.1475 2.49931 85.0239 2.44682 84.9004 2.39434C85.4556 2.37091 85.7146 2.47615 85.7683 2.47856C85.9205 2.48469 85.9901 2.41863 86.0372 2.4185C88.2997 2.42421 86.9255 2.48237 88.0561 2.73051C88.4593 2.63313 88.0514 2.53551 87.9941 2.43645C88.5302 2.48292 88.6975 2.45549 89.2634 2.46098C89.4106 2.46248 89.5689 2.51592 89.6618 2.51665C89.7423 2.51728 89.9938 2.46048 90.187 2.46025C90.509 2.45983 90.9375 2.49368 91.3783 2.49284C91.7449 2.492 92.867 2.45189 93.6496 2.45146C93.9836 2.45147 93.9061 2.49897 93.9924 2.49907C94.0283 2.49907 94.2886 2.44216 94.5028 2.44194C96.2501 2.44067 98.0408 2.47669 99.7968 2.47563C101.034 2.475 102.291 2.42924 103.531 2.43389C103.794 2.43494 103.655 2.47672 103.77 2.4782C103.809 2.47857 103.857 2.40567 104.265 2.43498C104.412 2.44555 104.243 2.49653 104.388 2.49907C104.458 2.50028 104.488 2.43638 104.9 2.4218C105.649 2.39518 106.052 2.48037 106.119 2.47783C106.245 2.47292 106.208 2.42004 106.375 2.41814C107.192 2.40884 107.875 2.39987 108.604 2.39543C108.944 2.39332 111.293 2.38263 111.421 2.39214C111.71 2.41327 111.441 2.5237 111.811 2.51994C111.915 2.49199 112.019 2.46404 112.122 2.43608C111.958 2.41484 111.793 2.3936 111.628 2.37236C112.082 2.40787 112.596 2.35764 112.931 2.35955C112.993 2.35998 113.564 2.41006 113.855 2.40459C113.731 2.42534 113.607 2.44609 113.484 2.46684C113.527 2.48454 113.571 2.50224 113.615 2.51994C114.197 2.49311 114.812 2.4938 115.409 2.4976C115.625 2.4989 115.552 2.5419 115.77 2.54338C117.039 2.55245 116.718 2.37365 117.939 2.70927C117.527 2.67884 116.023 2.72153 115.804 2.71037C115.652 2.70255 115.061 2.41896 115.278 2.71C114.059 2.70873 115.118 2.54821 113.98 2.58329C114.003 2.61882 114.025 2.65434 114.048 2.68986C113.651 2.71225 113.357 2.7302 113.116 2.66752C113.035 2.83985 111.685 2.73903 110.945 2.75065C109.875 2.76714 108.666 2.80917 107.606 2.81656C107.241 2.81907 107.034 2.75154 106.988 2.75175C106.921 2.75223 106.733 2.81138 106.599 2.8118C106.1 2.81349 104.582 2.7135 104.204 2.87772C107.174 2.87772 110.143 2.87772 113.113 2.87772C112.74 2.797 115.744 2.78911 115.896 2.79313C116.037 2.79674 115.918 2.85341 115.96 2.85685C116.272 2.88115 116.539 2.79899 116.638 2.79899C116.713 2.799 116.866 2.83755 117.134 2.8367C117.184 2.83659 117.197 2.79581 117.25 2.79569C117.601 2.79569 117.947 2.79627 118.298 2.79606C118.32 2.79645 118.409 2.85601 118.497 2.85611C118.586 2.85611 118.674 2.79661 118.697 2.79642C118.978 2.79685 119.46 2.83555 119.727 2.83597C119.82 2.83596 119.756 2.79234 119.86 2.79276C120.179 2.79382 120.074 2.87919 120.469 2.85721C120.602 2.84981 120.593 2.78452 120.847 2.79313C121.026 2.79926 121.007 2.91561 121.035 2.91983C121.075 2.92494 121.694 2.83306 121.897 2.90921C121.454 3.11026 122.381 2.9197 122.337 2.83487C122.582 2.85624 122.828 2.8776 123.073 2.89896C123.157 2.87748 123.241 2.85599 123.325 2.83451C124.315 2.93131 124.92 2.87319 125.894 2.90299C125.941 2.90447 126.763 2.95223 126.724 2.98245C126.233 3.03444 125.742 3.03681 125.428 2.94071C124.91 3.12395 124.901 2.97792 124.065 3.00223C123.785 3.01047 123.766 3.06018 123.733 3.06082C122.645 3.08554 120.902 3.10694 120.168 2.96158C119.963 3.00089 120.702 3.01648 120.415 3.04544C120.258 3.06129 116.487 3.10772 117.691 2.94034C117.566 2.94498 117.441 2.94962 117.316 2.95426C117.191 3.11235 116.569 3.07619 116.64 2.91873C116.581 2.95096 116.522 2.98318 116.463 3.01541C116.347 3.04268 116.209 3.05728 116.016 3.06595C115.276 3.0989 110.875 3.04406 110.641 3.06668C110.636 3.10403 110.63 3.14138 110.625 3.17874C112.569 3.22101 114.456 3.12818 116.576 3.23513C116.514 3.2001 116.452 3.16506 116.391 3.13003C117.237 3.1791 118.083 3.22817 118.929 3.27724C118.033 3.34065 116.609 3.3939 115.669 3.34169C115.502 3.33238 115.624 3.28353 115.586 3.27761C115.486 3.26224 115.378 3.347 115.018 3.35524C114.657 3.36347 113.752 3.30338 113.669 3.30507C113.509 3.30856 113.077 3.40554 112.805 3.40431C112.447 3.40262 112.687 3.3426 112.615 3.34133C112.318 3.33543 112.052 3.36517 111.819 3.36074C111.473 3.35414 110.755 3.24858 110.514 3.40358C110.761 3.41066 111.007 3.41774 111.254 3.42482C109.916 3.48041 108.869 3.28226 107.55 3.43508C107.25 3.62276 108.34 3.59739 107.419 3.6775C107.586 3.67481 107.753 3.67213 107.921 3.66944C107.96 3.63014 107.999 3.59083 108.038 3.55153C108.327 3.5796 108.615 3.60768 108.903 3.63575C108.821 3.60072 108.738 3.56569 108.656 3.53065C109.678 3.50423 110.71 3.46831 111.066 3.65663C111.087 3.6111 111.108 3.56556 111.129 3.52003C112.078 3.57539 113.502 3.38241 113.236 3.63575C113.281 3.62233 113.326 3.6089 113.37 3.59547C113.944 3.64725 113.699 3.54249 113.914 3.53065C113.976 3.52732 115.09 3.58141 114.596 3.65663C115.684 3.71411 115.348 3.47733 115.648 3.46693C116.344 3.58424 117.596 3.40828 117.07 3.59364C117.173 3.6006 117.277 3.60756 117.38 3.61451C117.721 3.46868 118.057 3.63368 118.426 3.68885C118.551 3.69215 118.676 3.69544 118.801 3.69874C118.885 3.64967 118.968 3.6006 119.052 3.55153C120.229 3.78508 119.856 3.14636 120.394 3.68299C120.31 3.7151 120.226 3.7472 120.142 3.7793C119.944 3.79456 119.745 3.80982 119.547 3.82508C120.347 3.83924 121.148 3.8534 121.949 3.86756C122.966 4.01797 123.544 3.85477 124.673 3.97375C124.779 3.95947 124.885 3.94519 124.991 3.93091C124.883 4.05244 124.473 4.03458 125.237 4.08911C125.302 4.17503 124.786 4.18615 124.551 4.12023C124.494 4.10415 124.976 4.03833 124.434 4.03601C124.066 4.03435 124.735 4.13761 123.63 4.09936C123.671 4.12036 123.712 4.14135 123.753 4.16235C123.634 4.16174 123.514 4.16113 123.394 4.16052C123.288 4.11193 123.181 4.06335 123.075 4.01477C122.801 4.08494 122.647 4.18327 122.022 4.16235C122.192 4.13192 121.961 4.03436 121.652 4.03601C121.652 4.07116 121.652 4.10632 121.652 4.14147C120.903 4.16409 121.161 4.06095 120.538 4.14147C120.476 4.11352 120.414 4.08557 120.351 4.05761C120.012 4.1728 118.763 4.25117 118.991 4.07849C118.64 4.24631 117.904 4.17059 117.631 4.03637C117.61 4.07129 117.589 4.1062 117.567 4.14111C117.422 4.14819 117.276 4.15527 117.13 4.16235C117.049 4.14123 116.968 4.12011 116.887 4.099C116.783 4.12011 116.68 4.14123 116.577 4.16235C116.514 4.12731 116.452 4.09228 116.39 4.05725C116.224 4.09924 116.058 4.14123 115.892 4.18322C115.79 4.15527 115.689 4.12731 115.587 4.09936C115.577 4.17244 114.571 4.18871 114.29 4.14074C114.206 4.16198 114.122 4.18322 114.038 4.20446C113.997 4.16967 113.956 4.13488 113.916 4.10009C113.853 4.12792 113.791 4.15576 113.729 4.18359C113.585 4.15576 113.441 4.12792 113.298 4.10009C112.712 4.27065 112.693 4.12101 112.559 4.12207C112.311 4.12402 111.467 4.23083 111.326 4.22533C111.185 4.2198 111.117 4.15858 111.003 4.15283C109.127 4.05666 109.898 4.22093 109.522 4.24694C109.319 4.2611 109.175 4.20399 108.996 4.21032C108.688 4.22089 107.139 4.29645 107.05 4.28905C106.92 4.27838 107.226 4.00909 106.804 4.07849C106.79 4.22309 105.888 4.07714 106.309 4.2788C105.938 4.2611 105.566 4.2434 105.195 4.2257C105.237 4.39711 104.779 4.28687 104.28 4.29638C103.572 4.30971 101.98 4.42241 102.038 4.24657C101.869 4.28698 101.7 4.32738 101.53 4.36779C100.371 4.31243 99.2346 4.37043 98.0842 4.37255C94.67 4.3791 90.9659 4.34093 87.5678 4.30626C87.4045 4.30455 87.428 4.24711 87.3104 4.24584C86.6924 4.2395 85.0862 4.28013 84.2206 4.26745C83.9433 4.26343 83.8083 4.2074 83.7204 4.20483C83.422 4.19574 83.4924 4.26956 83.3549 4.26745C83.1381 4.26406 81.9914 4.19553 81.5963 4.18835C81.4008 4.18479 81.1694 4.24345 80.9404 4.22533C80.9207 4.22386 80.9571 4.1634 80.9404 4.16235C80.5231 4.15495 80.7741 4.20721 80.6329 4.20446C79.6262 4.18481 78.5501 4.18361 77.4579 4.17114C77.1867 4.16797 76.7716 4.12535 76.5388 4.12133C76.45 4.11991 76.6093 4.16578 76.3024 4.16198C76.1972 4.16068 76.1613 4.10103 76.0426 4.09716C75.5312 4.08089 75.3601 4.27257 74.9206 4.1184C74.0723 4.12855 72.5957 4.17777 71.8217 4.17883C71.6387 4.179 71.5495 4.14377 71.375 4.1444C71.2512 4.14483 71.0333 4.1994 70.8401 4.20007C70.647 4.2007 70.342 4.14873 69.9705 4.15063C69.5793 4.15254 69.093 4.18341 69.0048 4.18322C68.8983 4.18322 68.8487 4.11758 68.7422 4.1184C68.4202 4.12052 67.5582 4.18504 67.1433 4.19201C66.6976 4.1994 66.43 4.16757 66.2777 4.16821C66.1366 4.16909 65.9721 4.22448 65.9077 4.22497C65.8074 4.22581 65.7837 4.16108 65.6564 4.16162C65.4484 4.16267 65.234 4.20338 64.9221 4.20446C59.3048 4.22454 53.7974 4.18897 48.3325 4.14184C47.7232 4.13656 47.379 4.18196 46.4812 4.16125C46.1172 4.1528 46.2706 4.08599 45.9873 4.09863C45.861 4.10434 45.8929 4.15687 45.7332 4.15942C45.0273 4.17041 44.2049 4.12159 43.899 4.12243C43.7777 4.12268 43.6391 4.18235 43.3903 4.18322C41.5365 4.18998 39.3433 4.17323 37.3483 4.18359C36.292 4.18908 34.6928 4.21949 33.4804 4.2235C30.1307 4.2347 26.5272 4.22088 23.4722 4.2268C18.8593 4.23546 14.2685 4.29064 9.66547 4.22533C11.819 4.36969 14.7514 4.35764 17.1489 4.37328C24.0738 4.41809 31.4472 4.33422 38.5442 4.33739C41.0135 4.33845 44.1269 4.33513 46.8302 4.36852C46.9528 4.37 47.2069 4.32411 47.4719 4.32897C47.5282 4.3301 48.2263 4.41381 48.4615 4.41466C48.2386 4.26586 49.16 4.39848 49.4448 4.39488C49.804 4.39021 50.5531 4.31585 51.3938 4.3579C52.1566 4.39594 51.9462 4.45318 51.9883 4.45677C52.2582 4.47997 52.3523 4.38773 52.559 4.37841C53.4036 4.34121 57.7478 4.3948 58.9602 4.39818C59.2735 4.39903 59.2824 4.45766 59.353 4.45787C59.5399 4.45826 59.806 4.40035 60.1055 4.40074C60.6455 4.40159 61.2674 4.45693 61.5646 4.45714C62.2754 4.45777 63.6242 4.39249 64.5481 4.39122C64.8078 4.39084 64.7919 4.45186 64.9096 4.45165C65.4273 4.45057 66.7758 4.37867 67.4184 4.37804C68.4623 4.37698 69.5362 4.41643 70.5974 4.39635C70.6647 4.42357 70.732 4.45079 70.7992 4.47801C70.9053 4.44945 71.0114 4.42088 71.1175 4.39232C72.9119 4.41409 74.7384 4.35278 76.5229 4.3568C76.7285 4.35723 77.7463 4.40932 77.916 4.40953C78.0572 4.40953 78.1961 4.34211 78.4054 4.35204C78.6986 4.36582 78.4227 4.49423 78.9016 4.4575C79.0304 4.44757 78.9055 4.3926 79.1642 4.37548C79.2497 4.36977 80.9081 4.3475 80.9973 4.35131C81.1458 4.35772 81.2783 4.47548 81.3167 4.47801C81.516 4.4913 81.5075 4.40093 81.6413 4.39269C82.0358 4.36802 82.5513 4.42881 82.6155 4.42748C83.3907 4.41078 84.8399 4.33864 85.6535 4.38134C85.766 4.38729 85.7525 4.45459 85.7723 4.45677C85.8998 4.47071 85.979 4.39409 86.1003 4.39232C86.7529 4.38366 87.7749 4.43525 88.4312 4.44835C88.5068 4.44978 88.6664 4.41292 88.8013 4.41649C89.5641 4.4372 89.3166 4.49635 89.36 4.49889C89.4628 4.50516 89.6435 4.43993 89.917 4.4359C90.6216 4.42512 91.9728 4.43449 92.7283 4.43956C93.2942 4.44358 93.2856 4.51828 93.3228 4.51976C93.4022 4.52244 93.6226 4.4628 93.9952 4.45604C94.7121 4.44273 94.6304 4.50142 94.9251 4.49889C94.9499 4.49889 94.9068 4.44145 95.2337 4.43553C95.8654 4.42414 97.2842 4.4806 97.9603 4.47765C98.2204 4.47659 98.2812 4.42121 98.5474 4.42015C98.9695 4.41826 99.9223 4.47816 99.9974 4.47801C100.018 4.47801 100.066 4.41429 100.19 4.41429C100.326 4.4143 100.46 4.4471 100.561 4.44688C101.139 4.446 102.136 4.33481 101.859 4.56224C102.044 4.50609 102.229 4.44994 102.415 4.39379C103.626 4.40499 104.802 4.38249 106.002 4.37108C106.272 4.36855 106.498 4.41162 106.725 4.40953C106.953 4.40742 107.958 4.33617 108.126 4.33483C108.426 4.3325 110.129 4.32499 110.34 4.33007C110.754 4.33979 111.155 4.43378 111.324 4.41539C111.459 4.4006 111.334 4.34764 111.591 4.33263C112.037 4.30667 112.795 4.3747 112.931 4.37364C112.989 4.37321 112.88 4.33193 113.425 4.32897C113.719 4.32728 113.876 4.37276 113.983 4.37255C114.016 4.37231 113.966 4.29856 114.547 4.30846C114.948 4.31544 115.119 4.37233 115.161 4.37255C115.225 4.37292 115.377 4.31221 115.631 4.31432C116.224 4.31962 117.309 4.38923 117.872 4.39452C117.981 4.39557 117.944 4.32222 118.379 4.32897C118.689 4.33383 118.635 4.39218 118.751 4.39452C118.936 4.39811 119.211 4.32666 119.618 4.32897C120.131 4.33193 123.938 4.40604 124.135 4.42528C124.267 4.43817 124.421 4.43898 124.486 4.47069C124.43 4.50108 124.374 4.53148 124.318 4.56187C123.735 4.45521 123.97 4.57711 123.815 4.58494C123.591 4.59614 122.746 4.58059 122.542 4.60765C122.469 4.61742 122.636 4.6823 122.245 4.71568C121.825 4.75136 121.638 4.63586 121.471 4.79368C120.875 4.61846 120.303 4.80443 120.993 4.8541C121.378 4.88179 125.155 4.94435 125.927 4.95407C126.552 4.96188 127.724 4.91493 128.492 4.92697C128.945 4.93416 130.058 4.9423 130.011 5.02621C130.412 5.03678 129.987 4.95325 130.071 4.94162C130.248 4.91735 131.5 4.97504 131.737 4.97275C132.906 4.96176 134.381 4.86796 135.517 4.97385C135.464 4.99631 135.411 5.01877 135.358 5.04123C135.103 5.08244 133.919 5.02352 133.785 5.13131C135.517 5.13131 137.248 5.13131 138.979 5.13131C138.947 5.03958 141.094 5.04082 141.196 5.08224C141.158 5.12667 141.121 5.17111 141.083 5.21554C139.869 5.04691 139.978 5.26981 139.163 5.15145C138.832 5.14978 138.932 5.2232 138.768 5.23714C137.142 5.37575 138.742 5.0865 137.497 5.15219C137.872 5.25867 136.852 5.29758 136.395 5.31112C136.291 5.31407 134.925 5.28709 134.762 5.28878C133.851 5.29829 132.286 5.35663 131.38 5.2983C130.667 5.29132 130.275 5.36717 129.627 5.38472C129.135 5.39804 129.276 5.34473 129.045 5.34407C128.56 5.34259 128.4 5.50489 128.089 5.27852C127.76 5.30672 127.431 5.33492 127.102 5.36312C127.102 5.32796 127.102 5.29281 127.102 5.25765C126.895 5.25765 126.688 5.25765 126.482 5.25765C126.421 5.29268 126.36 5.32772 126.299 5.36275C125.643 5.31477 125.917 5.23012 125.794 5.13058C125.653 5.12374 125.511 5.11691 125.369 5.11007C125.259 5.18649 125.15 5.2629 125.04 5.33931C124.407 5.33309 123.774 5.32686 123.142 5.32064C123.101 5.2856 123.06 5.25057 123.019 5.21554C123.018 5.25057 123.016 5.2856 123.015 5.32064C121.943 5.32784 120.872 5.33504 119.8 5.34224C119.515 5.39844 121.232 5.44103 121.362 5.44441C122.085 5.46301 124.006 5.40666 124.008 5.53157C124.458 5.43837 125.812 5.46151 126.233 5.57332C125.594 5.5666 124.954 5.55989 124.315 5.55317C124.336 5.59504 124.357 5.63691 124.377 5.67878C123.581 5.50991 123.465 5.51921 122.646 5.67878C122.645 5.62263 122.645 5.56648 122.644 5.51033C122.073 5.70558 121.064 5.37437 121.035 5.61543C120.731 5.5959 120.427 5.57637 120.124 5.55684C119.467 5.58622 120.486 5.77161 117.917 5.69892C117.74 5.69385 117.777 5.63244 117.511 5.63667C117.434 5.63794 116.994 5.72726 116.153 5.71796C116.022 5.71648 116.012 5.66321 115.876 5.65644C115.561 5.64038 114.935 5.74574 115.219 5.57405C113.974 5.52397 114.49 5.66489 114.104 5.72089C113.846 5.75806 113.898 5.65648 113.675 5.67951C113.399 5.70808 113.602 5.81049 112.497 5.76337C112.621 5.75641 112.745 5.74946 112.869 5.7425C112.807 5.71467 112.744 5.68684 112.682 5.65901C112.052 5.72579 112.111 5.62821 111.814 5.78461C111.356 5.71487 110.96 5.70931 110.333 5.72199C109.116 5.74672 109.74 5.91527 108.35 5.6883C108.125 5.72016 107.9 5.75202 107.675 5.78388C107.305 5.71689 107.604 5.63307 107.052 5.61616C107.484 5.78165 106.319 5.72131 106.122 5.86884C106.102 5.83368 106.081 5.79853 106.06 5.76337C105.937 5.76337 105.814 5.76337 105.69 5.76337C105.69 5.79157 105.69 5.81977 105.689 5.84796C105.525 5.82685 105.361 5.80573 105.196 5.78461C105.073 5.81257 104.949 5.84052 104.826 5.86847C104.623 5.80951 104.42 5.75056 104.217 5.6916C104.089 5.68757 103.962 5.68354 103.834 5.67951C103.874 5.7215 103.915 5.76349 103.955 5.80549C103.791 5.79145 103.627 5.77741 103.463 5.76337C103.654 5.83228 103.534 5.91306 103.024 5.91095C102.603 5.90926 103.077 5.76545 102.172 5.82526C102.109 5.82952 101.997 5.93209 101.142 5.94794C100.115 5.96694 100.614 5.89265 100.431 5.89008C100.395 5.88966 100.082 5.94127 99.7882 5.94867C99.6217 5.95288 99.4612 5.91121 99.4392 5.91132C99.3365 5.91322 99.3065 5.97217 99.1641 5.9743C98.8026 5.97938 98.3173 5.95049 97.9631 5.95343C97.8022 5.9547 97.6507 5.98963 97.5789 5.99005C97.4675 5.99045 97.3261 5.93711 97.2134 5.93732C96.7974 5.93843 96.1659 6.11544 95.9726 5.86957C95.5727 6.09565 94.7347 5.82231 94.7961 5.97394C93.7272 5.91671 90.8764 6.10273 90.96 5.84796C90.3546 6.0658 90.4087 5.90805 90.1552 5.91132C89.8716 5.91491 90.0185 5.95716 89.7931 5.95526C89.2669 5.95082 88.764 5.93267 88.2403 5.93182C88.3225 5.89691 88.4047 5.862 88.4869 5.82709C87.9371 5.81589 88.1264 5.89713 87.5656 5.91278C86.534 5.94131 86.9687 5.87649 86.8164 5.78498C86.8573 5.87333 85.6409 5.85959 85.5171 5.84796C85.4433 5.84088 85.7669 5.72701 85.022 5.76374C85.0628 5.79877 85.1035 5.83381 85.1442 5.86884C84.8049 5.82092 83.8831 5.88172 83.7267 5.86994C83.6549 5.86444 83.2707 5.58191 82.919 5.80549C82.8765 5.77045 82.8341 5.73542 82.7917 5.70039C82.4012 5.7425 82.0107 5.78461 81.6202 5.82673C81.5579 5.76362 81.4956 5.70051 81.4332 5.6374C81.3093 5.6374 81.1854 5.6374 81.0615 5.6374C81.1437 5.69343 81.2259 5.74946 81.3082 5.80549C80.5431 5.78013 79.6083 5.86848 79.4507 5.67951C79.2868 5.71455 79.1229 5.74958 78.959 5.78461C78.8523 5.72175 78.7457 5.65888 78.639 5.59602C77.8801 5.61188 77.8676 5.6539 77.3488 5.72089C77.369 5.67182 77.3893 5.62275 77.4096 5.57368C77.0269 5.64258 76.3283 5.70674 75.776 5.7154C75.5135 5.7194 75.0626 5.65178 75.0007 5.65791C74.9382 5.66437 74.3224 5.93004 74.2556 5.70002C73.3491 5.80189 72.95 5.69785 72.5823 5.70039C72.3433 5.70209 72.2343 5.7573 71.9644 5.76301C71.5781 5.77125 71.1892 5.74456 70.9663 5.74836C70.8388 5.75068 70.815 5.80453 70.727 5.80622C70.3113 5.81443 70.5549 5.75941 70.1166 5.76301C70.0761 5.76363 69.7558 5.82931 69.3947 5.82087C69.1928 5.8162 68.6706 5.74232 68.6246 5.7425C68.4202 5.74377 68.5835 5.89146 67.8851 5.72089C67.9053 5.74897 67.9256 5.77704 67.9459 5.80512C67.0815 5.87635 66.9451 5.75116 66.7705 5.7425C66.7482 5.74179 66.5377 5.79018 66.4118 5.78351C66.1991 5.77212 66.1133 5.70587 66.0662 5.70295C65.9003 5.6928 65.3414 5.72195 64.9761 5.65791C65.0528 5.84644 63.7727 5.91349 63.4892 5.70002C63.2626 5.74213 63.036 5.78425 62.8094 5.82636C62.7069 5.7912 62.6044 5.75605 62.5019 5.72089C62.4395 5.75593 62.3772 5.79096 62.3149 5.82599C61.9846 5.74885 61.6544 5.6717 61.3242 5.59455C61.3031 5.67182 61.2821 5.74909 61.2611 5.82636C61.1686 5.81757 61.0761 5.80878 60.9837 5.79999C60.9115 5.73859 60.8393 5.67719 60.7671 5.61579C60.6516 5.62751 60.536 5.63923 60.4204 5.65095C60.3918 5.69538 60.3632 5.73981 60.3346 5.78425C59.7133 5.83547 60.0325 5.41168 58.8488 5.78425C58.6647 5.74921 58.4805 5.71418 58.2963 5.67915C58.0883 5.84965 57.6986 5.74641 57.3841 5.76557C57.1625 5.77909 57.1745 5.84683 56.8725 5.84833C56.5704 5.84981 56.5812 5.78504 56.5576 5.78461C56.3113 5.78063 56.1256 5.83774 55.9449 5.82636C55.9177 5.82467 55.8495 5.74775 55.6192 5.74287C55.3889 5.738 55.2501 5.81982 54.907 5.80439C54.7312 5.79657 54.6804 5.73176 54.5245 5.72602C53.7815 5.69812 53.0333 6.02631 52.476 5.63703C52.3504 5.68635 51.4393 5.85899 51.0494 5.84906C50.4429 5.83321 50.6766 5.75685 50.4355 5.74287C50.4008 5.74075 50.2162 5.76655 49.7074 5.76191C49.6164 5.76107 49.6375 5.80418 49.6244 5.80475C49.0313 5.80391 47.8795 5.76987 47.2281 5.76374C47.1699 5.7631 46.8651 5.88328 46.3488 5.72163C45.5835 5.84103 44.1421 5.58449 43.1328 5.76447C42.9929 5.76828 42.8231 5.72529 42.7611 5.72675C42.2274 5.74007 42.423 5.87058 41.2168 5.67951C41.3144 5.74607 41.0323 5.80615 40.6336 5.80109C40.0343 5.79348 40.46 5.66937 39.9783 5.67951C39.9783 5.71455 39.9783 5.74958 39.9783 5.78461C38.8701 5.69038 38.6496 5.84016 37.5376 5.84101C37.1376 5.84122 36.5468 5.76358 36.4514 5.76337C36.4145 5.7636 35.9771 5.84806 35.9353 5.8487C35.7 5.85123 35.5672 5.81229 35.3641 5.81208C34.6929 5.81125 33.892 5.92113 34.0369 5.72163C33.8524 5.76374 33.6678 5.80585 33.4833 5.84796C32.7861 5.63492 32.2647 5.92854 32.1186 5.72163C31.9939 5.76435 31.8692 5.80707 31.7446 5.8498C28.7543 5.82819 25.764 5.80658 22.7737 5.78498C22.6548 5.85156 21.3508 5.82793 21.2839 5.81757C20.9769 5.77064 21.3012 5.62546 20.6746 5.65864C20.6053 5.72224 20.5359 5.78583 20.4666 5.84943C19.679 5.87014 20.0578 5.80685 19.747 5.76374C19.6171 5.77158 19.6591 5.82094 19.4833 5.82453C18.5297 5.84418 16.5745 5.84651 15.5318 5.85053C15.3216 5.85137 15.3533 5.80524 15.288 5.80512C15.1085 5.80554 14.7542 5.86368 14.3939 5.86371C12.1661 5.86329 9.00937 5.8305 6.76668 5.78168C6.61436 5.7783 6.5955 5.72327 6.49272 5.72053C6.35027 5.71695 6.03208 5.76143 5.88227 5.75678C5.74114 5.75255 5.65074 5.71076 5.49974 5.70588C4.80873 5.68305 3.87966 5.75366 3.14035 5.63044C3.07818 5.62005 2.30359 5.39852 2.28606 5.38399C2.18328 5.29776 2.87161 5.16228 1.74098 5.0361C2.75149 4.92598 2.43582 4.73132 1.12314 4.63621C1.78152 4.61167 2.43991 4.58714 3.09829 4.5626C3.09924 4.53953 3.10019 4.51646 3.10114 4.49339C2.5018 4.37905 1.90717 4.341 0.995819 4.33043C1.02424 4.30907 1.05266 4.28771 1.08108 4.26635C1.88602 4.15962 2.85703 4.13989 3.47002 3.99426C2.57102 3.88648 1.67201 3.77869 0.77301 3.67091C0.817913 3.65406 0.862816 3.63722 0.907719 3.62037C1.33867 3.57662 2.28001 3.55094 2.6379 3.51015C4.00478 3.3546 1.44158 3.39375 1.86261 3.29885C3.30576 3.30227 4.7489 3.30568 6.19204 3.3091C6.24264 3.23922 0.690813 3.0462 0.748001 2.83524C1.20158 2.82108 1.65515 2.80692 2.10873 2.79276C1.90657 2.73917 1.70441 2.68559 1.50225 2.632C1.55796 2.61503 1.61366 2.59806 1.66936 2.5811C2.4346 2.53947 3.19985 2.49785 3.96509 2.45622C1.63848 2.49806 0.55729 2.46769 0 2.04571C0.0630913 2.03497 0.126183 2.02423 0.189274 2.01349C0.693292 2.27747 3.07243 2.19209 4.33681 2.13946C4.07911 2.06213 2.96582 2.12187 2.73055 2.07538C2.66388 2.06205 2.89637 2.00837 2.74191 1.9809C2.33822 1.90946 0.617937 1.81755 0.867931 1.73005C1.02892 1.67383 3.79688 1.59669 4.33681 1.60261C3.07122 1.50159 1.76722 1.47236 0.49791 1.34957C1.29911 1.17837 2.00868 0.968865 3.47116 0.959565C3.91692 0.869739 0.820963 0.745302 0.749138 0.696268C1.28494 0.643657 1.82074 0.591046 2.35654 0.538436C1.90335 0.552473 1.45015 0.566511 0.996956 0.580549C0.99563 0.562971 0.994303 0.545393 0.992977 0.527816C2.16696 0.446232 3.241 0.296486 4.58463 0.306631C4.54129 0.213634 3.73734 0.222884 3.34725 0.222039ZM131.923 5.51143C131.95 5.58854 131.457 5.57589 131.18 5.57441C131.222 5.58845 131.263 5.60249 131.305 5.61653C130.713 5.60194 129.611 5.57235 129.57 5.72199C129.148 5.74059 129.335 5.61046 129.198 5.59565C129.145 5.58974 128.594 5.66547 128.153 5.57332C128.048 5.57368 127.944 5.57405 127.839 5.57441C127.819 5.62348 127.798 5.67256 127.778 5.72163C127.632 5.66206 127.486 5.60249 127.34 5.54292C128.867 5.53242 130.394 5.52192 131.92 5.51143C131.921 5.51143 131.922 5.51143 131.923 5.51143ZM116.703 5.57478C116.147 5.54709 115.295 5.50337 115.467 5.63777C115.819 5.63069 116.17 5.62361 116.521 5.61653C116.582 5.60261 116.642 5.5887 116.703 5.57478ZM61.389 5.46895C60.9246 5.33664 60.497 5.45108 59.7787 5.4272C59.7796 5.45515 59.7806 5.48311 59.7815 5.51106C60.0752 5.44394 60.8517 5.4886 61.389 5.46895ZM145.72 5.00571C145.822 5.01608 145.924 5.02646 146.027 5.03683C145.611 5.18711 145.536 5.08121 145.066 5.09579C145.037 5.0967 145.047 5.1311 145.037 5.13131C144.922 5.13363 144.815 5.09223 144.712 5.09286C144.511 5.09413 144.347 5.13609 143.992 5.13461C143.717 5.13333 143.714 5.06737 143.618 5.06906C143.536 5.07069 142.72 5.25214 142.195 5.17379C141.197 5.02457 145.415 4.99176 145.72 5.00571ZM148.678 5.12985C148.58 5.13046 148.481 5.13107 148.382 5.13168C148.679 5.03029 148.08 5.0457 147.64 5.04782C147.654 4.95059 148.584 4.99218 149 4.96323C148.893 5.01877 148.786 5.07431 148.678 5.12985ZM136.195 4.92148C136.582 4.91157 136.517 5.03292 136.501 5.06906C136.378 5.06906 136.255 5.06906 136.132 5.06906C136.153 5.01987 136.174 4.97067 136.195 4.92148ZM139.1 4.87937C138.98 4.9618 138.142 4.99784 137.744 5.00461C137.727 5.00462 137.836 4.95938 137.555 4.96359C137.471 4.96491 136.64 5.12952 136.823 4.94272C137.582 4.9216 138.34 4.90048 139.099 4.87937C139.1 4.87937 139.1 4.87937 139.1 4.87937ZM139.947 4.92807C139.789 4.95395 139.631 4.97983 139.473 5.00571C139.392 4.96701 139.31 4.92832 139.228 4.88962C139.408 4.87985 139.588 4.87009 139.768 4.86032C139.828 4.88291 139.887 4.90549 139.947 4.92807ZM21.0634 4.81821C21.1001 4.85959 21.1369 4.90097 21.1737 4.94235C21.3161 4.96772 22.0084 4.78754 21.7892 4.75266C21.5473 4.77451 21.3053 4.79636 21.0634 4.81821ZM18.1396 4.73142C17.9956 4.71055 17.8516 4.68968 17.7076 4.6688C17.542 4.73899 17.3764 4.80918 17.2108 4.87937C17.9302 4.9267 18.6956 4.98124 18.5721 4.77427C18.7368 4.77427 18.9014 4.77427 19.0661 4.77427C18.9274 4.85985 18.9461 4.88804 19.377 4.94235C19.4712 4.82327 19.9168 4.88394 20.4268 4.85776C20.0558 4.8508 19.6849 4.84385 19.3139 4.83689C19.3139 4.81589 19.3139 4.7949 19.3139 4.7739C20.1408 4.78149 19.1131 4.64831 18.5744 4.73179C18.532 4.70383 18.4895 4.67588 18.4471 4.64793C18.3446 4.67576 18.2421 4.70359 18.1396 4.73142ZM77.9075 4.7739C77.805 4.75278 77.7025 4.73167 77.6 4.71055C77.2028 4.9856 78.0115 4.72468 78.5873 4.94235C78.3971 4.777 79.2749 4.78391 79.3251 4.7728C79.2241 4.71714 79.1231 4.66148 79.0221 4.60582C78.6506 4.66184 78.279 4.71787 77.9075 4.7739ZM75.0019 4.58421C75.3573 4.72138 73.6114 4.72979 73.0256 4.69956C72.8831 4.69213 72.6293 4.61681 72.5266 4.62632C72.4642 4.65415 72.4019 4.68199 72.3396 4.70982C72.2657 4.61363 71.1219 4.72177 70.6713 4.77353C70.6289 4.7385 70.5864 4.70347 70.544 4.66844C70.3797 4.68235 70.2155 4.69627 70.0512 4.71018C70.0719 4.67527 70.0925 4.64036 70.1132 4.60545C69.9889 4.64744 69.8646 4.68943 69.7403 4.73142C69.2524 4.77813 69.5533 4.58781 69.1867 4.6472C68.7793 4.71314 69.4469 4.82648 69.4345 4.90024C69.7652 4.88122 70.5171 4.83863 70.8526 4.83652C71.0453 4.83538 70.8269 4.96754 71.6575 4.81565C71.8396 4.85105 72.0216 4.88645 72.2037 4.92185C72.5379 4.86557 72.8721 4.8093 73.2063 4.75303C73.2687 4.80198 73.331 4.85093 73.3933 4.89987C73.429 4.90754 74.202 4.79639 74.1607 4.75962C74.4738 4.85319 75.1166 4.86987 75.7937 4.87461C75.8588 4.848 75.924 4.82139 75.9892 4.79477C75.3343 4.85224 75.7808 4.76662 75.5856 4.71568C75.4729 4.6863 75.1282 4.62859 75.0019 4.58421ZM25.6259 4.71091C24.5262 4.83033 25.207 4.7318 24.0185 4.73179C24.1014 4.79502 24.1844 4.85825 24.2674 4.92148C24.8518 4.80595 25.8134 4.88278 25.627 4.71091C25.6266 4.71091 25.6262 4.71091 25.6259 4.71091ZM13.9949 4.92111C14.6239 4.88286 14.3082 4.78453 15.1055 4.75303C15.1059 4.75303 15.1063 4.75303 15.1067 4.75303C14.6944 4.74595 14.2821 4.73887 13.8699 4.73179C13.9115 4.7949 13.9532 4.85801 13.9949 4.92111ZM50.7646 4.84458C51.3677 4.87205 51.249 4.82285 51.7962 4.92111C52.611 4.80191 51.9213 4.81876 51.9213 4.71055C51.735 4.74229 51.5488 4.77402 51.3626 4.80576C50.911 4.70457 51.3392 4.65362 51.3392 4.6439C51.3389 4.6439 51.3385 4.6439 51.3381 4.6439C51.3381 4.61142 51.3527 4.60458 51.1795 4.58494C51.0412 4.67149 50.9029 4.75803 50.7646 4.84458ZM53.3457 4.71091C53.1388 4.78278 53.0459 4.87504 53.5895 4.92111C53.5899 4.92111 53.5903 4.92111 53.5906 4.92111C53.6343 4.76051 54.1555 4.89014 54.3932 4.87937C54.4555 4.86191 54.5179 4.84446 54.5802 4.827C54.1687 4.78831 53.7572 4.74961 53.3457 4.71091ZM62.4399 4.56334C62.4422 4.74075 61.9859 4.75763 62.628 4.92111C62.7527 4.91794 62.8774 4.91477 63.002 4.91159C63.0839 4.87265 63.1657 4.83371 63.2476 4.79477C64.829 5.11582 65.3004 4.56915 62.628 4.77353C62.6277 4.77366 62.6273 4.77378 62.6269 4.7739C62.5646 4.70371 62.5022 4.63352 62.4399 4.56334ZM59.6548 4.57835C59.6347 4.67149 59.6146 4.76462 59.5945 4.85776C59.2453 4.63309 58.7942 4.84746 58.1093 4.68894C58.0474 4.71726 57.9854 4.74558 57.9235 4.7739C57.6676 4.71158 55.1536 4.69363 55.6982 4.83689C55.936 4.89945 56.4539 4.81448 56.4985 4.81638C56.6496 4.82341 56.8466 4.90342 57.1016 4.89878C57.249 4.89598 57.5596 4.80193 57.8604 4.8021C58.5328 4.80252 59.7602 5.05503 60.6444 4.81601C60.708 4.84409 60.7717 4.87216 60.8353 4.90024C61.4914 4.88311 61.2724 4.79415 61.8829 4.90024C62.3046 4.45785 59.4288 4.92206 60.0277 4.56334C60.0273 4.56334 60.0269 4.56334 60.0265 4.56334C59.9026 4.56834 59.7787 4.57335 59.6548 4.57835ZM41.5897 4.71091C41.55 4.63147 40.789 4.75405 40.9678 4.5637C40.7195 4.62998 40.4711 4.69627 40.2227 4.76255C40.2246 4.78025 40.2265 4.79795 40.2284 4.81565C40.4752 4.80173 40.7221 4.78782 40.969 4.7739C40.9699 4.80198 40.9709 4.83005 40.9718 4.85813C41.3397 4.75656 42.8749 4.8008 42.8282 4.90024C42.9102 4.85825 42.9923 4.81626 43.0743 4.77427C43.8086 4.88861 44.4404 4.76704 45.2404 4.87863C45.3024 4.84385 45.3643 4.80906 45.4263 4.77427C45.4666 4.80234 45.507 4.83042 45.5474 4.85849C45.8387 4.86203 46.1301 4.86557 46.4215 4.86911C47.3711 4.75607 45.5261 4.60972 45.3024 4.62632C45.2727 4.62865 45.2773 4.70133 45.0915 4.71275C44.7616 4.73278 42.9149 4.66041 42.3439 4.70835C42.339 4.66014 42.3341 4.61192 42.3291 4.5637C42.0826 4.61277 41.8361 4.66184 41.5897 4.71091ZM65.9685 4.75303C66.0101 4.8021 66.0518 4.85117 66.0935 4.90024C66.8129 4.85123 67.2658 4.89407 67.0814 4.73179C67.081 4.73179 67.0806 4.73179 67.0802 4.73179C66.7096 4.73887 66.3391 4.74595 65.9685 4.75303ZM119.427 4.79477C119.408 4.69723 119.064 4.66076 118.62 4.73069C118.642 4.75901 118.663 4.78733 118.684 4.81565C118.916 4.73258 119.205 4.87736 119.919 4.85813C119.919 4.80906 119.919 4.75999 119.919 4.71091C119.755 4.73887 119.591 4.76682 119.427 4.79477ZM65.3478 4.73179C65.1285 4.67393 64.5132 4.84946 64.9181 4.85813C65.2277 4.86468 65.4654 4.76286 65.3478 4.73179ZM11.5207 4.82627C11.6833 4.83652 11.8458 4.84677 12.0084 4.85703C12.0931 4.81528 12.1778 4.77353 12.2624 4.73179C12.2621 4.73179 12.2617 4.73179 12.2613 4.73179C12.0144 4.76328 11.7676 4.79477 11.5207 4.82627ZM48.7031 4.85263C49.2544 4.84653 49.8057 4.84043 50.3571 4.83432C50.3626 4.8071 50.3681 4.77988 50.3736 4.75266C49.8212 4.852 49.5992 4.74493 49.4704 4.73838C49.471 4.73838 49.4715 4.73838 49.4721 4.73838C49.0586 4.71683 48.6646 4.70097 48.2734 4.66844C48.4166 4.72984 48.5598 4.79123 48.7031 4.85263ZM46.8132 4.68089C46.906 4.87322 47.0273 4.89562 47.8743 4.76035C47.8408 4.73667 47.8073 4.71299 47.7737 4.68931C47.3348 4.70346 47.0788 4.74787 47.1559 4.64756C47.0417 4.65867 46.9274 4.66978 46.8132 4.68089ZM55.447 4.74241C55.3453 4.68118 54.5386 4.74267 54.5825 4.77353C54.5998 4.78579 55.6451 4.86246 55.447 4.74241ZM125.552 4.7523C125.366 4.73826 125.18 4.72422 124.994 4.71018C125.241 4.68931 125.489 4.66844 125.736 4.64756C125.674 4.68247 125.613 4.71738 125.552 4.7523ZM127.592 4.47874C127.725 4.50326 127.294 4.67618 128.086 4.7208C127.51 4.72446 126.933 4.72813 126.356 4.73179C126.627 4.70383 126.897 4.67588 127.168 4.64793C127.12 4.59825 127.073 4.54857 127.026 4.49889C127.215 4.49217 127.403 4.48546 127.592 4.47874ZM128.211 4.60545C127.901 4.47402 129.535 4.46415 129.688 4.48021C129.722 4.48403 129.883 4.58367 129.942 4.60508C129.696 4.60521 129.449 4.60533 129.202 4.60545C129.284 4.63682 129.367 4.66819 129.45 4.69956C129.161 4.7103 128.872 4.72105 128.583 4.73179C128.706 4.70029 128.83 4.6688 128.953 4.63731C128.706 4.62669 128.459 4.61607 128.211 4.60545ZM121.652 4.63731C121.859 4.6406 122.065 4.6439 122.272 4.6472C122.231 4.59813 122.189 4.54905 122.148 4.49998C122.024 4.49998 121.901 4.49998 121.777 4.49998C121.735 4.54576 121.694 4.59153 121.652 4.63731ZM125.864 4.57396C125.563 4.81022 124.743 4.2937 125.701 4.48497C125.798 4.50441 125.892 4.55113 125.864 4.57396ZM130.301 4.50841C130.943 4.33615 130.798 4.71647 130.191 4.60508C130.161 4.59916 130.252 4.52113 130.301 4.50841ZM135.119 4.50291C135.171 4.50419 135.262 4.62733 135.759 4.51024C135.841 4.52428 135.923 4.53831 136.005 4.55235C135.814 4.60957 134.171 4.6436 134.398 4.52159C134.649 4.51969 134.859 4.49911 135.119 4.50291ZM133.529 4.04736C133.283 4.05078 133.036 4.0542 132.79 4.05761C132.871 4.09619 132.952 4.13476 133.033 4.17333C132.912 4.18383 132.791 4.19433 132.67 4.20483C132.462 4.1383 132.255 4.07177 132.048 4.00525C132.584 3.99463 133.119 3.98401 133.655 3.97339C133.613 3.99805 133.571 4.0227 133.529 4.04736ZM126.975 3.95215C127.45 4.00055 128.031 3.94903 128.801 3.95728C128.801 3.9574 128.802 3.95752 128.802 3.95764C128.841 3.9582 128.909 4.01119 129.032 4.0133C129.138 4.01499 131.218 3.9568 131.056 4.04663C130.251 4.12714 129.95 4.00473 129.757 4.20446C129.718 4.16235 129.679 4.12023 129.639 4.07812C128.866 4.0052 128.645 4.15099 128.21 4.20446C128.212 4.17272 128.213 4.14099 128.215 4.10925C127.925 4.10607 127.635 4.1029 127.344 4.09973C127.385 4.1206 127.426 4.14147 127.467 4.16235C127.364 4.16235 127.262 4.16235 127.159 4.16235C126.909 4.0683 126.592 4.04639 126.975 3.95215ZM134.647 4.09973C134.875 3.859 137.095 4.02389 138.11 3.97339C137.577 4.11834 136.752 4.01845 136.171 4.01697C135.049 4.01423 135.825 4.10295 135.634 4.14184C135.54 4.16107 134.903 4.00673 134.647 4.09973ZM125.243 3.99426C125.803 4.01371 126.116 3.95828 126.6 4.04663C126.56 4.06421 126.519 4.08178 126.479 4.09936C126.313 4.08327 124.961 4.0325 125.243 3.99426ZM139.596 4.03637C138.515 3.94993 139.048 4.16789 138.486 4.00452C138.856 3.99414 139.226 3.98376 139.596 3.97339C139.596 3.99438 139.596 4.01538 139.596 4.03637ZM64.1104 3.82618C63.6548 3.82067 63.146 3.77674 62.8736 3.86756C63.1832 3.88159 63.4927 3.89563 63.8023 3.90967C63.905 3.88184 64.0077 3.85401 64.1104 3.82618ZM77.1027 2.93887C76.9986 2.9171 76.5873 2.98135 76.5439 2.98135C76.4634 2.98135 76.4854 2.9497 76.4842 2.94144C75.9571 2.94717 76.4435 3.04533 76.0534 3.06668C75.9867 3.0702 75.0705 3.02168 74.6978 3.02566C74.1244 3.03179 73.5519 3.02544 73.3376 3.02713C72.976 3.02989 72.3047 3.10352 71.7103 3.10733C71.4653 3.10877 71.3798 3.04982 71.1334 3.0513C69.552 3.06123 66.4388 3.14217 65.0357 3.10476C64.6891 3.09547 64.3585 3.01827 64.1752 3.02457C64.0306 3.05276 63.8861 3.08096 63.7415 3.10916C63.297 2.85533 63.1482 3.08109 62.669 3.10476C62.3645 3.11972 62.2222 3.04452 62.1813 3.04471C61.9101 3.04619 61.7764 3.08199 61.5634 3.08792C61.3244 3.09447 60.981 3.06055 60.8956 3.06668C60.8431 3.07079 61.0106 3.17075 60.0834 3.16885C59.1383 3.16688 58.2054 3.15631 57.2443 3.15164C57.5648 3.45342 57.8409 3.24688 58.2332 3.23586C58.3385 3.2329 58.2718 3.28082 58.3634 3.27871C58.6222 3.273 59.1177 3.22591 59.3319 3.23733C59.5633 3.24964 59.4842 3.36069 59.7776 3.31972C59.7924 3.31761 59.7455 3.27174 59.8145 3.26406C60.508 3.18818 60.735 3.26796 61.6118 3.27029C62.1927 3.27197 65.7206 3.22645 65.8417 3.25637C66.4733 3.417 62.7558 3.41809 62.3211 3.40541C62.1689 3.40096 62.3285 3.35032 62.1898 3.3406C62.131 3.33671 61.6026 3.43327 61.0803 3.4413C60.4488 3.45102 59.1796 3.38515 58.5777 3.38747C53.4039 3.40755 48.3017 3.34919 43.1328 3.34792C43.0226 3.34792 42.8775 3.40577 42.5184 3.40578C35.8163 3.40472 28.87 3.35911 22.0825 3.38637C20.6027 3.39229 19.1351 3.4467 17.6417 3.40358C17.4564 3.44582 17.2711 3.48805 17.0858 3.53029C17.5598 3.49671 18.4282 3.59224 18.5073 3.59364C18.5358 3.59406 18.7155 3.54644 19.0053 3.54896C19.4127 3.55234 19.5914 3.59364 19.6248 3.59364C19.7284 3.59377 19.6605 3.54985 19.7595 3.55006C20.4976 3.55196 21.0686 3.5395 21.746 3.53908C22.5112 3.53867 22.8991 3.62047 23.4563 3.53065C23.5194 3.56569 23.5825 3.60072 23.6456 3.63575C24.0619 3.48424 26.5411 3.50102 27.5453 3.50905C27.8622 3.5116 27.8066 3.57313 27.9131 3.57313C27.981 3.57306 27.9542 3.49249 28.7833 3.50832C29.2006 3.51635 29.31 3.57503 29.5193 3.57313C29.633 3.57201 29.6146 3.51381 29.7779 3.51381C30.7228 3.51381 31.4943 3.53269 32.4193 3.54347C32.6793 3.54643 32.6822 3.59501 32.7404 3.59437C32.9547 3.5922 33.3274 3.50993 33.8721 3.51015C34.7686 3.51057 36.5555 3.51085 37.2887 3.55079C37.3964 3.55671 37.4856 3.61499 37.5649 3.61415C37.6849 3.61266 37.7319 3.55185 37.753 3.55153C38.1543 3.55047 37.9129 3.60701 38.1816 3.59327C38.3264 3.58587 38.4775 3.51652 38.8142 3.50868C39.2588 3.49832 39.1713 3.58064 39.357 3.5724C39.3766 3.57111 39.3825 3.51387 39.5651 3.51198C40.2573 3.50521 41.2615 3.49199 41.9165 3.4922C42.1047 3.4922 42.2446 3.53074 42.507 3.53139C43.0358 3.53265 46.0415 3.5081 46.288 3.53029C46.314 3.53261 46.0467 3.61705 46.4727 3.61451C46.5964 3.57936 46.7201 3.5442 46.8439 3.50905C47.0507 3.56532 47.2576 3.62159 47.4645 3.67787C47.4571 3.48344 48.6743 3.45341 48.6621 3.65223C48.7953 3.66029 48.9285 3.66834 49.0617 3.6764C49.3391 3.53903 49.5237 3.58975 50.0598 3.50905C50.1434 3.55116 50.2269 3.59327 50.3105 3.63539C50.3315 3.60731 50.3525 3.57924 50.3736 3.55116C50.6596 3.70331 51.1288 3.55054 51.1858 3.5497C51.4049 3.54632 51.5695 3.585 51.6723 3.58375C52.0562 3.57974 52.8871 3.52645 53.3354 3.55116C53.3565 3.55243 53.3358 3.61747 53.4633 3.6255C53.6934 3.64 53.7158 3.54478 54.0226 3.65663C54.0846 3.62855 54.1465 3.60048 54.2085 3.5724C54.2742 3.58693 54.34 3.60145 54.4057 3.61598C54.7937 3.60853 55.1818 3.60109 55.5698 3.59364C55.2168 3.70376 55.623 3.76525 56.0069 3.6786C56.1368 3.64921 56.0215 3.58218 56.0648 3.57203C56.1243 3.5583 57.8657 3.59242 57.9809 3.63575C58.0633 3.61463 58.1457 3.59352 58.2281 3.5724C58.2698 3.61463 58.3115 3.65687 58.3532 3.69911C58.3987 3.68433 58.4441 3.66956 58.4896 3.65479C58.9428 3.72918 60.1191 3.55856 60.3323 3.57203C60.4462 3.57922 60.3438 3.75924 60.8899 3.74085C60.9088 3.69141 60.9278 3.64198 60.9467 3.59254C61.0718 3.58546 61.1968 3.57838 61.3219 3.5713C61.5565 3.57571 61.8981 3.66139 61.909 3.71998C61.9823 3.68482 62.0557 3.64967 62.129 3.61451C62.3259 3.72906 63.376 3.68846 63.7984 3.61598C63.9219 3.65052 64.0454 3.68507 64.1689 3.71961C64.3349 3.67762 64.5009 3.63563 64.6669 3.59364C65.0513 3.581 64.6452 3.6508 64.7271 3.65663C64.9005 3.66867 65.784 3.55075 65.7258 3.69764C65.8463 3.69801 65.9668 3.69837 66.0873 3.69874C66.1492 3.65675 66.2112 3.61476 66.2731 3.57277C66.48 3.71754 66.8378 3.66643 67.5719 3.71925C67.6335 3.68592 67.695 3.6526 67.7566 3.61927C67.9836 3.66664 68.2106 3.714 68.4376 3.76136C68.4842 3.70618 68.5308 3.65101 68.5774 3.59584C68.6761 3.5879 68.7748 3.57997 68.8735 3.57203C69.074 3.69563 69.4342 3.56207 69.6175 3.61305C69.885 3.68745 69.6782 3.7761 69.1816 3.79322C69.2187 3.88323 70.698 3.8419 71.0391 3.83533C71.0165 3.81775 70.994 3.80018 70.9714 3.7826C70.6226 3.79651 70.2738 3.81043 69.925 3.82435C69.6328 3.59798 70.58 3.65869 71.0146 3.62953C71.0543 3.62673 71.2797 3.54097 71.7177 3.54896C71.8874 3.55213 72.5491 3.67748 72.6755 3.68446C73.6956 3.7417 72.9455 3.56259 73.9435 3.71961C73.7355 3.59935 74.3089 3.69928 74.9058 3.67603C75.0074 3.67206 75.869 3.57457 75.9272 3.57203C76.29 3.55639 75.8951 3.66269 76.42 3.63502C76.4831 3.60707 76.5462 3.57911 76.6093 3.55116C76.7315 3.55116 76.8537 3.55116 76.9759 3.55116C77.7174 3.80027 77.89 3.61682 78.1536 3.59327C78.2601 3.58376 78.123 3.64876 78.3992 3.63502C78.5031 3.62991 78.6185 3.57584 78.8982 3.57203C79.7736 3.56022 80.0708 3.79169 80.8756 3.55079C80.9992 3.58571 81.1227 3.62062 81.2462 3.65553C81.3296 3.61366 81.4129 3.57179 81.4963 3.52992C82.1339 3.65141 81.9037 3.52698 82.134 3.52846C82.7421 3.53226 83.9866 3.55608 84.0956 3.65626C84.6205 3.42614 85.2482 3.68574 85.4551 3.67677C85.5781 3.64881 85.7011 3.62086 85.824 3.59291C85.9686 3.62098 86.1132 3.64906 86.2577 3.67713C86.1874 3.45115 86.9361 3.67337 87.008 3.67677C87.0909 3.68015 88.2424 3.61327 88.6711 3.61451C89.0991 3.61578 89.8451 3.67701 89.9108 3.67713C89.9863 3.67713 90.7149 3.61571 91.2846 3.61634C91.783 3.61701 94.736 3.70426 94.5499 3.60353C94.3568 3.57563 94.0818 3.55145 93.844 3.53834C93.1059 3.49819 88.7739 3.44674 87.6667 3.43068C85.4465 3.39877 83.1308 3.40469 80.9006 3.38271C80.7694 3.38144 80.7495 3.32287 80.6369 3.32155C80.466 3.31986 80.0323 3.37848 79.8639 3.37722C79.2348 3.37214 78.4694 3.36258 78.1326 3.3611C77.3798 3.35814 76.8634 3.32287 76.2938 3.31716C76.1155 3.31547 75.214 3.38808 74.5961 3.35744C74.4841 3.34096 74.3721 3.32448 74.2601 3.308C74.5784 3.28877 75.4134 3.23901 75.801 3.2333C76.3779 3.22507 76.6788 3.27258 76.8918 3.27175C77.0701 3.27112 77.9813 3.21701 78.3963 3.21572C78.5251 3.2153 78.5515 3.27672 78.6618 3.27651C79.2599 3.27503 80.0476 3.27339 80.5664 3.21316C80.3547 3.23281 81.6771 3.2705 81.7464 3.27029C81.8653 3.27027 81.9942 3.21279 82.2369 3.21279C82.7036 3.21282 82.6444 3.33304 83.2276 3.21279C83.372 3.24782 83.5164 3.28286 83.6607 3.31789C83.6696 3.15773 85.4939 3.37558 86.0127 3.18093C86.0263 3.15895 83.6558 3.09658 83.4601 3.09341C82.2862 3.07418 80.549 3.11345 79.4098 3.08535C79.0669 3.0769 77.9888 2.97954 77.9075 2.98135C77.7763 2.9841 77.8948 3.03979 77.8382 3.04178C76.6782 3.08319 77.2569 2.97126 77.1027 2.93887ZM128.21 3.84668C127.858 3.84009 127.505 3.8335 127.153 3.82691C127.178 3.79175 127.204 3.7566 127.23 3.72144C127.391 3.73511 127.552 3.74879 127.714 3.76246C127.838 3.74146 127.962 3.72047 128.086 3.69947C128.127 3.74854 128.169 3.79761 128.21 3.84668ZM129.079 3.69947C129.384 3.68177 129.399 3.7559 129.47 3.75953C129.68 3.77052 129.862 3.74054 130.066 3.74158C129.831 3.91768 129.33 3.83698 129.079 3.69947ZM122.767 3.63612C122.835 3.64454 123.295 3.83413 123.819 3.65772C124.21 3.71375 124.601 3.76978 124.993 3.82581C124.328 3.74021 123.408 3.82919 123.082 3.82581C122.958 3.82452 122.935 3.76633 122.836 3.76539C122.266 3.76074 121.712 3.8926 121.654 3.69984C122.193 3.75585 122.679 3.62576 122.767 3.63612ZM126.204 3.7046C126.295 3.74488 126.386 3.78516 126.478 3.82544C126.148 3.82544 125.819 3.82544 125.49 3.82544C125.579 3.78467 125.668 3.7439 125.757 3.70313C125.906 3.70362 126.055 3.70411 126.204 3.7046ZM100.872 3.5713C101.075 3.57179 101.278 3.57228 101.481 3.57277C101.47 3.54341 101.237 3.54352 101.152 3.5237C101.152 3.5237 101.153 3.5237 101.153 3.5237C101.058 3.50129 101.098 3.46349 100.925 3.44679C100.907 3.4883 100.889 3.5298 100.872 3.5713ZM16.8397 3.40431C16.4992 3.4022 13.3553 3.40199 13.6232 3.50905C13.7582 3.56252 14.8334 3.51589 15.1504 3.51674C15.5778 3.51782 16.732 3.63361 16.8397 3.40431ZM11.2717 3.38344C11.2173 3.49013 13.1821 3.5071 13.3742 3.48854C13.3334 3.47333 13.2706 3.43946 13.2162 3.43178C12.9512 3.395 11.6953 3.4126 11.2717 3.38344ZM89.4975 3.26333C89.6559 3.31728 89.8143 3.37123 89.9727 3.42519C89.931 3.355 89.8893 3.28481 89.8477 3.21462C89.731 3.23086 89.6142 3.24709 89.4975 3.26333ZM74.1328 3.3406C71.4942 3.33718 68.8555 3.33376 66.2169 3.33034C66.4489 3.30117 66.681 3.27199 66.9131 3.24282C69.1868 3.25318 71.6115 3.28271 73.8071 3.23769C73.9157 3.27199 74.0243 3.30629 74.1328 3.3406ZM122.023 3.32009C121.347 3.31904 120.782 3.37059 120.047 3.2886C120.748 3.20912 121.095 3.33208 121.776 3.21499C121.776 3.21499 121.777 3.21499 121.777 3.21499C121.859 3.25002 121.941 3.28506 122.023 3.32009ZM106.929 3.29885C107.134 3.24978 107.34 3.20071 107.546 3.15164C107.298 3.15164 107.051 3.15164 106.804 3.15164C106.846 3.20071 106.887 3.24978 106.929 3.29885ZM51.1164 3.06778C50.4093 3.17488 48.6003 2.98103 48.0255 3.10989C47.9884 3.11834 48.33 3.17272 47.7777 3.27798C48.1949 3.25642 48.4895 3.23443 48.5206 3.15164C48.6445 3.17971 48.7684 3.20779 48.8923 3.23586C49.0979 3.21462 49.3035 3.19338 49.509 3.17214C49.4867 3.25457 49.503 3.25018 49.8188 3.19375C49.9628 3.21462 50.1068 3.2355 50.2508 3.25637C50.3118 3.22146 50.3728 3.18655 50.4338 3.15164C50.5585 3.20046 50.6831 3.24929 50.8078 3.29812C51.2937 3.24515 50.9978 3.15054 51.1164 3.06778ZM53.5918 3.08792C53.4768 3.06977 50.1982 3.12897 51.6882 3.29336C52.0755 3.28811 52.4628 3.28286 52.85 3.27761C52.5293 3.00538 53.5847 3.24883 53.6714 3.25454C54.0861 3.28113 54.6147 3.21639 54.9156 3.21975C55.1744 3.22271 55.3281 3.27154 55.5101 3.27029C56.1301 3.26606 57.1095 3.26428 57.2443 3.15164C56.7623 3.14929 56.2727 3.14808 55.7716 3.1509C55.2415 3.15386 54.7756 3.04755 53.7799 3.19338C53.5337 3.17771 53.6215 3.09257 53.5918 3.08792ZM108.165 3.16299C108.14 3.27614 109.391 3.24908 109.399 3.20437C109.402 3.17816 108.994 3.17878 108.936 3.16885C108.936 3.16885 108.935 3.16885 108.935 3.16885C108.911 3.16451 109.034 3.1212 108.842 3.10916C108.616 3.1271 108.39 3.14504 108.165 3.16299ZM21.7295 3.15127C21.5604 3.08778 17.6964 3.11061 17.5826 3.14102C17.5517 3.14946 17.5948 3.17731 17.5826 3.19338C18.484 3.1038 19.7655 3.20983 20.6212 3.21682C20.8597 3.21871 20.7884 3.17373 20.8019 3.17288C20.8025 3.17288 20.8031 3.17288 20.8036 3.17288C20.939 3.17277 21.55 3.28266 21.7295 3.15127ZM46.7882 3.16152C46.9524 3.17922 47.1167 3.19692 47.2809 3.21462C47.3226 3.17959 47.3643 3.14456 47.406 3.10952C47.4056 3.10952 47.4052 3.10952 47.4049 3.10952C47.1993 3.12686 46.9937 3.14419 46.7882 3.16152ZM41.0969 3.04617C41.1368 3.07083 41.1768 3.09549 41.2168 3.12014C41.6304 3.12356 42.044 3.12698 42.4576 3.1304C42.4159 3.14431 42.3742 3.15823 42.3325 3.17214C42.9579 3.20934 43.2169 3.12269 43.55 3.13516C43.5497 3.13516 43.5493 3.13516 43.5489 3.13516C43.5848 3.13661 43.6281 3.18798 43.7615 3.18972C44.0672 3.19374 44.9435 3.21285 45.0494 3.16116C45.2735 3.05086 43.51 3.10321 43.1811 3.09817C43.0325 3.09585 42.8538 3.05089 42.7634 3.04983C42.6644 3.04885 42.5294 3.10956 42.2882 3.10769C42.2176 3.10706 41.435 3.03563 41.0969 3.04617ZM33.7965 3.11978C33.924 3.17536 34.1903 3.12167 34.2881 3.13076C34.3115 3.13291 34.1297 3.17944 34.3501 3.19338C34.4124 3.16165 34.4747 3.12991 34.5371 3.09817C34.2902 3.10537 34.0433 3.11258 33.7965 3.11978ZM110.267 3.10952C110.231 3.0976 109.559 3.10196 109.527 3.10952C109.125 3.21097 110.516 3.19998 110.267 3.10952ZM127.22 2.99344C126.911 2.84598 130.578 2.99095 130.933 2.98318C130.915 3.07586 130.043 2.98268 130.5 3.10989C130.064 3.03993 128.859 3.07708 128.575 3.05679C128.403 3.04453 128.36 2.96448 128.334 2.96195C128.232 2.95293 127.329 3.04541 127.22 2.99344ZM133.963 3.04617C133.614 3.02859 133.266 3.01102 132.917 2.99344C133.329 2.98294 133.74 2.97244 134.151 2.96195C134.088 2.99002 134.025 3.0181 133.963 3.04617ZM134.401 3.00406C134.39 2.91423 135.572 2.98266 135.883 2.96195C135.533 3.11475 134.948 2.97069 134.401 3.00406ZM114.723 2.87772C114.178 2.81833 113.944 3.09214 114.607 2.97293C114.627 2.96899 114.746 2.88087 114.723 2.87772ZM50.9482 2.68253C50.8553 2.68084 49.6998 2.59207 49.6329 2.63603C49.4215 2.77627 50.1797 2.72003 50.4338 2.77299C50.8437 2.8588 50.2409 2.9295 51.2415 2.87772C51.2006 2.90579 51.1596 2.93387 51.1187 2.96195C51.7043 2.97124 51.5127 2.77676 51.6178 2.75175C51.6499 2.74414 52.0161 2.7605 52.0821 2.74808C52.9074 2.5914 51.0344 2.68384 50.9482 2.68253ZM101.235 2.85685C100.15 2.77442 100.617 2.89536 99.5035 2.88797C99.4663 2.94969 101.094 2.91095 101.235 2.85685ZM61.5112 2.79349C60.3893 2.81779 59.4666 2.73707 58.4202 2.84549C58.4884 3.01247 61.8022 2.83661 61.5112 2.79349ZM8.79754 2.62431C13.1627 2.92168 18.1978 2.82378 22.8453 2.81913C23.3518 2.8187 23.4004 2.88491 23.5836 2.87772C23.7037 2.87307 23.6827 2.81974 23.8423 2.81949C29.6093 2.81083 35.1314 2.74107 40.6558 2.77299C41.0038 2.7751 42.6967 2.88961 43.0584 2.71696C43.3319 2.58598 42.1158 2.6881 41.9131 2.68693C41.7608 2.68608 41.7543 2.62453 41.6527 2.62431C41.545 2.6241 41.634 2.66615 41.5089 2.66679C40.979 2.66974 40.4006 2.65331 39.9214 2.6569C35.2218 2.69135 30.6497 2.6815 25.9748 2.67558C25.409 2.67494 25.5253 2.62562 25.4968 2.62541C25.4965 2.62553 25.4961 2.62565 25.4957 2.62577C22.4617 2.62112 18.9966 2.73176 15.7831 2.68949C13.5201 2.65556 11.2572 2.62162 8.9942 2.58769C8.92865 2.5999 8.86309 2.6121 8.79754 2.62431ZM53.344 2.85648C53.0616 2.67049 52.9985 2.85802 51.9855 2.78214C51.9031 2.81388 51.8207 2.84562 51.7383 2.87735C52.2741 2.8704 52.8099 2.86344 53.3457 2.85648C53.3451 2.85648 53.3445 2.85648 53.344 2.85648ZM46.6534 2.78873C46.4823 2.53754 44.217 2.71506 43.1971 2.66715C43.0101 2.79331 44.4929 2.73664 44.8426 2.74992C45.0172 2.75647 45.9523 2.88621 46.6631 2.81437C46.6599 2.80582 46.6567 2.79728 46.6534 2.78873ZM123.384 2.62431C123.22 2.63163 123.055 2.63896 122.89 2.64628C123.302 2.67411 123.715 2.70194 124.127 2.72977C123.469 2.71183 122.811 2.69389 122.153 2.67594C122.276 2.62382 122.398 2.5717 122.521 2.51958C122.809 2.55449 123.097 2.5894 123.384 2.62431ZM121.249 2.65104C122.402 2.63141 121.199 2.77095 120.911 2.7089C120.739 2.6717 121.132 2.65316 121.249 2.65104ZM118.252 2.56132C118.79 2.46981 119.876 2.46351 119.49 2.64628C118.909 2.56068 118.535 2.63181 117.693 2.58256C117.815 2.54753 117.938 2.5125 118.061 2.47746C118.062 2.47746 118.063 2.47746 118.063 2.47746C118.126 2.50542 118.189 2.53337 118.252 2.56132ZM121.776 2.54045C122.531 2.64545 120.346 2.60955 121.032 2.54045C121.065 2.53728 121.746 2.53643 121.776 2.54045ZM13.6232 2.43535C13.5322 2.49507 14.1127 2.49396 14.3058 2.49797C15.1429 2.51572 16.2164 2.48973 17.0869 2.49797C17.0214 2.47832 16.9558 2.45866 16.8903 2.43901C15.8012 2.43779 14.7122 2.43657 13.6232 2.43535ZM19.8101 2.49834C20.4082 2.49834 21.0064 2.49834 21.6045 2.49834C21.6602 2.49834 21.9217 2.44709 21.7273 2.43462C21.0882 2.45586 20.4492 2.4771 19.8101 2.49834ZM57.1198 2.49834C56.6612 2.46489 57.9818 2.29346 57.9223 2.4771C57.6548 2.48418 57.3873 2.49126 57.1198 2.49834ZM61.3872 2.4251C61.0996 2.44255 60.812 2.46001 60.5244 2.47746C60.524 2.45635 60.5237 2.43523 60.5233 2.41411C60.8113 2.41777 61.0993 2.42143 61.3872 2.4251ZM11.2717 2.39324C11.5764 2.4655 12.3031 2.45438 12.7564 2.45586C12.4442 2.39377 11.7001 2.42429 11.2717 2.39324ZM50.2485 2.42436C50.2857 2.47361 48.4614 2.46122 49.093 2.37456C49.4781 2.39116 49.8633 2.40776 50.2485 2.42436ZM46.5432 2.35149C46.9344 2.34072 47.2375 2.35763 47.157 2.43498C46.9496 2.43169 46.7421 2.42839 46.5346 2.4251C46.5375 2.40056 46.5403 2.37603 46.5432 2.35149ZM116.207 2.41411C115.547 2.42107 114.888 2.42803 114.229 2.43498C114.253 2.41387 114.278 2.39275 114.302 2.37163C114.938 2.3648 115.573 2.35796 116.209 2.35112C116.208 2.37212 116.208 2.39312 116.207 2.41411ZM10.8989 2.20355C10.4461 2.21734 9.99324 2.23113 9.54042 2.24493C9.99362 2.25909 10.4468 2.27325 10.9 2.28741C10.9 2.25933 10.9 2.23125 10.9 2.20318C10.8996 2.2033 10.8993 2.20342 10.8989 2.20355ZM125.239 2.14056C123.225 2.04208 125.795 1.93797 126.326 2.0827C126.327 2.08258 126.327 2.08246 126.328 2.08233C126.375 2.09512 126.276 2.15698 126.354 2.18194C126.149 2.15399 125.944 2.12603 125.739 2.09808C125.552 2.13287 125.365 2.16766 125.178 2.20245C125.116 2.18878 125.054 2.1751 124.993 2.16143C125.075 2.15447 125.157 2.14752 125.239 2.14056ZM133.368 2.08563C135.195 2.09705 133.326 2.25173 132.422 2.12957C132.428 2.1013 133.2 2.08457 133.368 2.08563ZM128.582 2.11895C128.294 2.13299 128.006 2.14703 127.718 2.16107C127.682 2.14337 127.645 2.12567 127.608 2.10797C127.829 2.09039 128.05 2.07281 128.271 2.05523C128.374 2.07647 128.478 2.09771 128.582 2.11895ZM119.117 1.84577C118.654 1.82632 118.063 2.02313 119.55 1.97138C119.549 1.95026 119.549 1.92914 119.548 1.90802C119.488 1.9114 119.315 1.9312 119.305 1.92963C119.278 1.92435 119.31 1.85383 119.117 1.84577ZM136.75 1.52937C136.802 1.52134 136.83 1.29859 137.371 1.52901C137.535 1.51497 137.698 1.50093 137.862 1.48689C137.904 1.53596 137.946 1.58503 137.989 1.63411C137.356 1.59606 137.289 1.69534 137.243 1.69746C137.033 1.70675 137.188 1.65568 137.052 1.65498C136.702 1.65329 135.906 1.68758 136.267 1.54182C136.397 1.48962 136.698 1.5374 136.75 1.52937ZM135.513 1.40267C135.589 1.42126 135.342 1.48642 135.4 1.50484C135.451 1.5209 136.214 1.58738 136.007 1.69746C135.882 1.69282 135.757 1.68818 135.631 1.68354C135.589 1.65339 135.547 1.62324 135.504 1.59309C135.383 1.62092 135.262 1.64875 135.14 1.67658C134.936 1.60219 134.501 1.50581 135.018 1.44515C134.828 1.45149 134.638 1.45784 134.448 1.46419C134.35 1.49983 134.251 1.53548 134.153 1.57112C134.205 1.5168 134.256 1.46248 134.308 1.40816C134.709 1.40633 135.111 1.4045 135.513 1.40267ZM141.398 1.42354C141.375 1.45162 141.352 1.47969 141.328 1.50777C142.026 1.45557 143.111 1.43573 142.495 1.61177C141.55 1.62642 140.606 1.64106 139.661 1.65571C139.599 1.63459 139.536 1.61348 139.473 1.59236C140.178 1.67372 139.96 1.3275 140.573 1.42684C140.676 1.44368 140.376 1.56475 141.026 1.48726C141.003 1.45906 140.98 1.43086 140.957 1.40267C141.104 1.40962 141.251 1.41658 141.398 1.42354ZM147.391 1.46565C146.198 1.42507 147.513 1.32262 147.733 1.40779C147.733 1.40779 147.732 1.40779 147.732 1.40779C148.336 1.64087 147.037 1.52826 146.958 1.52974C146.852 1.5318 146.607 1.69867 146.034 1.4554C146.487 1.45882 146.939 1.46224 147.391 1.46565ZM143.494 1.42391C143.594 1.41841 143.539 1.46079 143.582 1.46016C143.583 1.46016 143.583 1.46016 143.583 1.46016C144.222 1.45107 145.742 1.41313 145.907 1.54988C145.434 1.56129 143.317 1.59084 143.189 1.49788C143.291 1.47322 143.392 1.44856 143.494 1.42391ZM138.997 1.52571C138.605 1.43717 139.488 1.42539 139.72 1.46639C139.764 1.47527 139.404 1.61742 138.997 1.52571ZM108.905 1.2972C108.042 1.35046 109.176 1.40362 108.784 1.48689C108.948 1.47981 109.113 1.47273 109.278 1.46565C109.154 1.4095 109.029 1.35335 108.905 1.2972ZM69.5533 1.12912C69.3521 1.11928 69.4474 1.17011 69.43 1.17086C69.2978 1.16945 69.1732 1.12803 69.1225 1.13241C68.1847 1.21601 68.8083 1.25871 68.8178 1.26864C68.8376 1.31893 68.5911 1.37778 68.9326 1.43526C69.1399 1.41744 69.3472 1.39962 69.5544 1.38179C69.6573 1.40975 69.7602 1.4377 69.8631 1.46565C70.2749 1.40568 69.736 1.38923 69.6749 1.30965C69.6514 1.27837 70.0388 1.24092 69.5533 1.12912ZM107.359 1.12875C107.219 1.2171 106.876 1.32854 107.213 1.41731C107.213 1.41731 107.213 1.41731 107.214 1.41731C107.276 1.43355 107.53 1.44249 107.608 1.46529C108.163 1.34759 107.95 1.22595 107.359 1.12875ZM73.2711 0.970917C73.6054 0.991547 73.9396 1.01218 74.2738 1.03281C74.2681 1.08578 74.2624 1.13876 74.2567 1.19174C74.0779 1.17745 73.899 1.16317 73.7202 1.14889C73.6575 1.17306 73.5947 1.19723 73.532 1.2214C73.7541 1.28182 73.9761 1.34224 74.1982 1.40267C74.4657 1.38155 74.7332 1.36043 75.0007 1.33931C74.8778 1.31136 74.7548 1.28341 74.6319 1.25545C75.2858 1.2246 75.1433 1.35342 75.6845 1.40267C75.8698 1.3536 76.0551 1.30453 76.2404 1.25545C76.5087 1.30477 76.777 1.35408 77.0452 1.4034C77.496 1.38036 77.5357 1.3428 77.2322 1.28658C77.4564 1.22233 77.7018 1.32339 77.9717 1.2972C77.994 1.29509 77.952 1.23458 77.9717 1.23385C79.3674 1.19306 79.2931 1.35196 79.516 1.35872C79.6733 1.36337 80.3013 1.25613 80.3112 1.21957C80.3233 1.1703 79.0172 0.975997 81.0626 0.970917C80.0051 0.836523 78.8029 0.973327 79.5803 1.1705C79.2456 1.15065 77.7697 1.19985 77.6756 1.19393C77.5384 1.185 77.5865 1.1102 77.4147 1.10824C77.3131 1.10719 77.0441 1.27818 76.2404 1.12875C76.1377 1.15682 76.035 1.1849 75.9323 1.21298C75.8361 1.1899 75.7398 1.16683 75.6436 1.14376C75.8418 1.06149 76.04 0.979218 76.2381 0.896945C75.4531 0.98634 74.8018 0.818403 74.3238 0.959931C73.9105 0.943459 73.7097 0.927176 73.8873 0.854832C73.7632 0.854832 73.6391 0.854832 73.515 0.854832C73.4337 0.893527 73.3524 0.932222 73.2711 0.970917ZM104.822 1.25509C104.412 1.17295 104.264 1.35016 104.328 1.36019C104.688 1.41533 105.036 1.29782 104.822 1.25509ZM70.299 1.22323C70.7522 1.26888 71.2054 1.31453 71.6586 1.36019C71.6586 1.30416 71.6586 1.24813 71.6586 1.1921C71.2054 1.20248 70.7522 1.21285 70.299 1.22323ZM109.031 1.17123C109.073 1.21322 109.115 1.25521 109.156 1.2972C109.653 1.14382 110.146 1.36389 110.391 1.31844C110.444 1.30851 110.337 1.23437 110.235 1.21847C110.172 1.20853 109.119 1.15707 109.031 1.17123ZM129.696 1.19137C129.511 1.21957 129.326 1.24776 129.142 1.27596C129.152 1.22872 129.162 1.18148 129.172 1.13424C129.264 1.12545 129.355 1.11666 129.446 1.10788C129.53 1.13571 129.613 1.16354 129.696 1.19137ZM127.592 1.26644C127.262 1.26266 126.932 1.25887 126.603 1.25509C127.861 1.21176 126.828 1.19062 127.592 1.12912C127.592 1.17489 127.592 1.22067 127.592 1.26644ZM124.253 1.17086C124.294 1.14267 124.335 1.11447 124.375 1.08627C124.705 1.08627 125.035 1.08627 125.365 1.08627C125.156 0.988373 124.947 0.890476 124.739 0.792578C124.618 0.792334 124.497 0.79209 124.376 0.791846C124.335 0.918185 124.294 1.04452 124.253 1.17086ZM60.6432 0.918551C60.4438 0.91686 59.7501 1.00241 59.7798 1.0339C60.068 1.0726 60.3562 1.11129 60.6444 1.14999C60.6457 1.09384 60.647 1.03769 60.6483 0.981537C60.6891 1.00949 60.7298 1.03744 60.7705 1.0654C60.9344 1.0444 61.0983 1.02341 61.2622 1.00241C61.3448 1.05148 61.4274 1.10055 61.51 1.14962C61.593 1.09359 61.676 1.03757 61.759 0.981537C60.9677 0.882203 60.9949 0.981488 60.8302 0.980439C60.7467 0.979964 60.6939 0.945198 60.6643 0.927706C60.6572 0.924654 60.6502 0.921602 60.6432 0.918551ZM70.6122 0.865818C69.6674 0.851869 69.1274 0.999697 68.4438 0.876072C68.8822 1.13941 71.7131 0.867404 72.7113 1.087C72.8149 1.04477 72.9185 1.00253 73.0222 0.960298C72.4787 0.997908 72.1021 0.91092 71.8371 0.89841C71.6265 0.888476 71.6486 0.932734 71.6325 0.9321C71.6317 0.9321 71.631 0.9321 71.6302 0.9321C71.1374 0.913925 70.9849 0.87132 70.6122 0.865818ZM109.733 0.964692C109.479 0.897962 109.035 0.904636 109.03 1.00204C109.278 1.03024 109.525 1.05844 109.772 1.08664C109.721 1.0617 109.777 0.976105 109.733 0.964692ZM123.87 0.898776C123.672 0.867073 123.204 0.894854 123.405 0.978974C123.442 0.993904 123.908 0.934774 123.634 1.08664C124.089 1.08429 123.982 0.916999 123.87 0.898776ZM86.7579 1.0654C86.9246 1.06259 87.0914 1.05978 87.2581 1.05697C87.2969 1.01767 87.3358 0.978364 87.3746 0.939058C87.169 0.981171 86.9635 1.02328 86.7579 1.0654ZM111.876 0.897311C112.098 1.08967 112.476 0.902475 112.892 1.06064C113.046 1.06186 113.2 1.06308 113.353 1.0643C113.354 1.0643 113.354 1.0643 113.355 1.0643C113.359 1.01181 113.363 0.959321 113.367 0.906832C112.87 0.903659 112.373 0.900485 111.876 0.897311ZM76.362 0.970551C76.4647 0.994965 76.5674 1.01938 76.6701 1.04379C76.8529 1.01535 77.0358 0.986908 77.2186 0.958467C77.1197 0.938082 77.0208 0.917696 76.9219 0.897311C76.7353 0.921725 76.5487 0.946138 76.362 0.970551ZM114.577 0.880832C114.04 0.856738 113.838 1.02396 114.525 1.02438C114.815 1.02438 115.14 0.906009 114.577 0.880832ZM50.3758 0.980805C50.56 0.995087 50.7441 1.00937 50.9283 1.02365C50.991 0.988495 51.0537 0.95334 51.1164 0.918185C50.8696 0.939058 50.6227 0.959931 50.3758 0.980805ZM126.418 0.917819C126.397 0.952974 126.375 0.988129 126.354 1.02328C126.189 1.0162 126.025 1.00912 125.861 1.00204C125.902 0.967133 125.943 0.932222 125.985 0.897311C126.129 0.904147 126.274 0.910983 126.418 0.917819ZM51.6149 1.00241C51.7621 1.00912 51.9093 1.01584 52.0566 1.02255C52.1555 1.00546 52.2544 0.988373 52.3533 0.971284C52.2155 0.954316 52.0778 0.937349 51.94 0.920382C51.8317 0.947725 51.7233 0.975068 51.6149 1.00241ZM119.672 0.896945C119.465 0.854676 118.639 0.986375 119.383 1.01999C119.857 1.04133 119.703 0.903375 119.672 0.896945ZM120.786 0.854832C119.999 0.774305 120.589 1.18302 121.529 0.918185C120.583 0.954494 120.833 0.859695 120.786 0.854832ZM127.712 0.643901C127.732 0.644112 127.748 0.70288 127.906 0.705056C128.476 0.712665 129.228 0.735886 129.636 0.739479C130.615 0.748144 133.615 0.641908 133.966 0.811987C134.039 0.847706 133.871 0.954436 133.901 0.959931C133.988 0.97526 134.49 0.923472 134.397 1.00204C133.905 1.00143 133.412 1.00082 132.92 1.00021C133.041 0.944795 133.161 0.889377 133.282 0.833959C132.055 0.863543 132.461 0.860128 132.109 0.980805C131.901 0.934053 131.693 0.887302 131.486 0.84055C131.034 0.887546 130.582 0.934542 130.129 0.981537C130.232 0.946504 130.334 0.911471 130.437 0.876438C129.756 0.811555 129.945 0.854102 129.572 0.939058C129.572 0.904025 129.571 0.868992 129.57 0.833959C128.913 0.919347 128.785 0.814353 128.641 0.813085C128.346 0.811022 127.971 1.22553 126.846 0.813085C126.372 1.01145 126.383 0.607903 126.105 0.813085C125.302 0.589719 126.828 0.67056 127.55 0.677958C127.55 0.677958 127.551 0.677958 127.551 0.677958C127.606 0.678591 127.519 0.640979 127.712 0.643901ZM123.591 0.849339C124.077 0.667255 122.158 0.65021 122.793 0.913058C122.888 0.921602 122.982 0.930147 123.077 0.938692C123.249 0.908908 123.421 0.879123 123.592 0.849339C123.592 0.849339 123.592 0.849339 123.591 0.849339ZM105.564 0.728493C103.787 0.803314 104.798 0.908058 105.399 0.805761C105.519 0.785472 105.585 0.757655 105.564 0.728493ZM69.2623 0.72593C69.2363 0.74778 69.2104 0.76963 69.1844 0.79148C69.7803 0.77103 70.9327 0.855314 70.9169 0.707986C70.3653 0.713967 69.8138 0.719949 69.2623 0.72593ZM73.9765 0.629619C73.8485 0.620733 73.3257 0.599758 73.3888 0.654887C73.6154 0.693949 73.842 0.73301 74.0686 0.772071C74.1741 0.747658 74.2796 0.723244 74.3852 0.698831C74.2378 0.690529 74.0112 0.631943 73.9765 0.629619Z" fill="white"/>
</svg>
