<svg width="30" height="30" viewBox="0 0 30 30" fill="none" xmlns="http://www.w3.org/2000/svg">
<path d="M15 3.75L18.6594 6.1654L22.955 7.04505L23.8346 11.3406L26.25 15L23.8346 18.6594L22.955 22.955L18.6594 23.8346L15 26.25L11.3406 23.8346L7.04505 22.955L6.1654 18.6594L3.75 15L6.1654 11.3406L7.04505 7.04505L11.3406 6.1654L15 3.75Z" stroke="#025A60" stroke-width="1.5" stroke-linecap="round" stroke-linejoin="round"/>
<path d="M18.75 11.25L11.25 18.75M12.5 11.875C12.5 12.2202 12.2202 12.5 11.875 12.5C11.5298 12.5 11.25 12.2202 11.25 11.875C11.25 11.5298 11.5298 11.25 11.875 11.25C12.2202 11.25 12.5 11.5298 12.5 11.875ZM18.75 18.125C18.75 18.4702 18.4702 18.75 18.125 18.75C17.7798 18.75 17.5 18.4702 17.5 18.125C17.5 17.7798 17.7798 17.5 18.125 17.5C18.4702 17.5 18.75 17.7798 18.75 18.125Z" stroke="#025A60" stroke-width="2" stroke-linecap="square" stroke-linejoin="round"/>
</svg>
