<svg width="78" height="80" viewBox="0 0 78 80" fill="none" xmlns="http://www.w3.org/2000/svg">
<path d="M26.781 29.2505C25.2309 30.3946 24.313 32.3965 25.1291 34.4054C26.2312 37.1173 29.7512 38.097 31.4675 35.4568C32.0342 34.5849 32.265 33.4761 32.0223 32.4717C36.3177 32.6954 40.6123 32.9191 44.9077 33.1419C44.7474 33.7564 44.828 34.447 45.186 35.0102C46.0633 36.3896 47.9688 36.6487 49.3567 36.0713C50.9059 35.4258 51.7144 33.6486 51.5057 31.9588C51.364 30.8129 50.5267 29.8058 49.4976 29.674C50.1831 28.8031 50.7498 27.8366 50.8219 26.6774C50.9017 25.3979 50.2654 24.1919 49.0674 23.7869C47.9942 23.4244 46.7488 23.7816 46.0268 24.6853C45.3362 25.55 45.1444 26.7437 45.4024 27.818C40.9517 27.4555 36.512 26.9559 32.0919 26.299C32.0698 26.2954 32.052 26.3025 32.0317 26.3025C31.8586 24.84 30.9644 23.481 29.657 22.8718C28.0841 22.1387 26.2914 22.7931 25.3073 24.2211C24.3622 25.5925 24.4597 27.4423 25.6976 28.5767C26.0157 28.8685 26.3881 29.0913 26.781 29.2505ZM25.9385 24.6048C26.786 23.4129 28.3191 22.9504 29.5866 23.6817C30.7752 24.367 31.4471 25.7738 31.3283 27.1682C31.2868 27.6554 32.0172 27.6527 32.058 27.1682C32.0614 27.1301 32.0563 27.093 32.0588 27.055C37.1305 27.8039 42.2243 28.368 47.3342 28.7359C47.8033 28.7695 47.8008 28.009 47.3342 27.9754C46.9498 27.948 46.5664 27.9118 46.182 27.8817C45.9182 27.0346 45.9665 26.085 46.4679 25.3334C46.9965 24.5412 47.9985 24.214 48.874 24.5199C49.8785 24.8701 50.234 25.9798 50.055 26.9975C49.8505 28.1664 49.0522 29.094 48.3056 29.9393C48.0188 30.2638 48.3768 30.7271 48.7476 30.537C49.9761 29.9057 50.8278 31.4203 50.8066 32.5026C50.782 33.7529 50.1763 34.9607 49.008 35.4002C48.0561 35.7574 46.82 35.6752 46.0573 34.9156C45.4108 34.271 45.3184 32.8607 46.2864 32.4584C46.7174 32.2798 46.529 31.5432 46.0921 31.7254C45.7332 31.8748 45.4541 32.1277 45.2446 32.4301C45.203 32.4098 45.1572 32.3956 45.1029 32.3921C40.6395 32.1595 36.1769 31.9279 31.7135 31.6953C31.6685 31.614 31.6304 31.5291 31.5769 31.4513C31.3071 31.0552 30.6742 31.4345 30.9466 31.835C31.6847 32.9191 31.442 34.3745 30.6327 35.348C29.6697 36.5072 28.1367 36.5603 26.9761 35.6708C25.7289 34.714 25.1919 32.9978 25.8401 31.5034C26.2261 30.6122 26.9277 29.9119 27.7608 29.4892C28.415 29.5432 29.0776 29.4008 29.6451 28.9932C29.9259 28.7916 29.8462 28.2734 29.461 28.2849C28.8434 28.3026 28.2368 28.4626 27.6735 28.7226C27.1449 28.6519 26.6299 28.4122 26.2125 28.04C25.2055 27.139 25.1648 25.6924 25.9385 24.6048Z" fill="white"/>
<path d="M74.0486 28.7918C72.7794 27.1622 71.3982 25.6263 69.9857 24.1319C64.354 18.1777 58.0208 12.9705 51.539 8.06402C47.9257 5.32827 44.2454 2.69153 40.5455 0.0857553C40.5438 0.0839869 40.5421 0.0831046 40.5404 0.0822204C40.5336 0.0769151 40.526 0.0724956 40.5192 0.0671903C40.5133 0.0636534 40.5082 0.0636573 40.5031 0.0601205C40.4641 0.0327099 40.4216 0.014158 40.3758 0.00531586C40.3529 1.05777e-05 40.3317 0.000884214 40.3097 0C40.2876 0 40.2664 1.05777e-05 40.2443 0.00531586C40.1977 0.014158 40.1553 0.0327099 40.1162 0.0601205C40.1103 0.0636573 40.1052 0.0636534 40.1001 0.0671903C33.3664 4.80127 26.3213 9.03313 19.6114 13.8052C12.9914 18.5137 6.2551 23.8092 1.71619 30.8131C1.35307 31.3737 1.00948 31.9466 0.689631 32.5355C0.435961 33.0033 0.133937 33.4993 0.0321301 34.0343C-0.170636 35.0953 0.618369 35.5666 1.49646 35.6939C4.15024 36.0777 6.8388 36.1396 9.5087 35.9247C9.23636 36.8788 8.98863 37.8408 8.77738 38.8117C7.6312 44.086 7.1561 49.5327 6.80826 54.9194C6.43751 60.6623 6.31788 66.4186 6.24747 72.173C6.22965 73.5913 6.21607 75.0087 6.20165 76.427C6.2008 76.5066 6.22032 76.5711 6.24831 76.6286C6.26189 76.6587 6.2848 76.6843 6.30601 76.7099C6.31534 76.7197 6.32043 76.7338 6.33061 76.7427C6.37557 76.7869 6.43157 76.8249 6.50707 76.8452C10.4097 77.9054 14.437 78.3581 18.4482 78.7021C22.6987 79.0673 26.9542 79.3856 31.2081 79.7101C39.9118 80.3741 48.6384 79.7649 57.3352 79.2061C62.2254 78.8922 67.1105 78.4678 71.9684 77.794C71.993 77.7904 72.0116 77.7781 72.0337 77.771C72.2314 77.7604 72.4095 77.626 72.3849 77.3598C71.8394 71.5249 71.2939 65.6909 70.7484 59.8559C70.2164 54.166 69.7507 48.4646 69.1347 42.7835C68.9048 40.6641 68.6121 38.4889 68.1599 36.3536C70.2334 36.5127 72.3154 36.5065 74.3871 36.3076C75.1795 36.2307 76.3427 36.2837 77.0231 35.7815C77.6399 35.3261 77.5729 34.548 77.3005 33.9016C76.5217 32.0519 75.2618 30.3498 74.0486 28.7918ZM72.9796 28.7953C71.0419 30.0394 69.1042 31.2835 67.1664 32.5267C67.1495 32.5373 67.1418 32.5532 67.1266 32.5647C66.5581 30.8997 65.8447 29.2975 64.8961 27.8271C64.8189 27.7077 64.7256 27.6034 64.645 27.4867C65.7632 26.0808 66.8211 24.6236 67.8146 23.1186C69.6158 24.9207 71.383 26.7899 72.9796 28.7953ZM67.2114 22.5138C66.2459 23.9861 65.2134 25.4079 64.1249 26.7828C62.899 25.2125 61.4152 23.895 59.8881 22.6368C59.581 22.3839 59.273 22.1319 58.965 21.879C58.9939 21.848 59.0236 21.818 59.0448 21.772C59.7914 20.1901 60.5379 18.6083 61.2845 17.0255C63.2146 18.7064 65.1065 20.4342 66.934 22.2344C67.0273 22.3273 67.1189 22.4219 67.2114 22.5138ZM60.6431 16.4632C60.6262 16.4862 60.6067 16.5021 60.5931 16.5313C59.8372 18.1326 59.0821 19.7339 58.3262 21.3343C58.3228 21.3414 58.3236 21.3476 58.3211 21.3546C56.8856 20.1919 55.4196 19.0681 53.839 18.1308C53.6558 18.022 53.4615 17.9327 53.2748 17.8302C53.9968 15.9486 54.7179 14.0678 55.4399 12.1862C56.4309 12.975 57.426 13.7592 58.4017 14.5692C59.1542 15.1925 59.9016 15.8248 60.6431 16.4632ZM54.7578 11.638C54.0163 13.57 53.2757 15.5029 52.5342 17.4349C50.7865 16.5578 48.9192 15.9044 46.9993 15.441C47.0077 15.4216 47.0222 15.4083 47.0281 15.3853C47.8112 12.7583 48.5934 10.1313 49.3765 7.50432C51.1903 8.85363 52.9813 10.2356 54.7578 11.638ZM34.9224 14.6081C34.1367 11.7901 33.3511 8.97211 32.5655 6.15412C34.9979 4.56607 37.4226 2.96478 39.81 1.30511C39.8838 5.68374 39.6971 10.0615 39.2322 14.4153C39.2305 14.4304 39.2364 14.4401 39.2356 14.4542C39.2085 14.4533 39.1796 14.4507 39.1525 14.4507C37.7407 14.4136 36.3281 14.4719 34.9224 14.6081ZM40.0653 14.4153C40.5336 10.0279 40.7211 5.61563 40.6422 1.20252C43.3325 3.10092 46.0109 5.01967 48.6613 6.98086C47.8493 9.70512 47.0374 12.4303 46.2255 15.1545C46.2136 15.1943 46.217 15.2288 46.2153 15.2651C44.1682 14.8256 42.0845 14.586 40.0424 14.4923C40.0492 14.4657 40.0619 14.4445 40.0653 14.4153ZM31.8317 6.63338C32.5808 9.32228 33.3308 12.0103 34.0799 14.6992C31.8758 14.9697 29.7013 15.4667 27.5965 16.1979C26.9924 14.4003 26.206 12.6734 25.2362 11.0588C25.221 11.0332 25.1998 11.0199 25.1819 10.9987C26.7922 9.92529 28.4109 8.86777 30.0254 7.81202C30.6269 7.41943 31.2293 7.02597 31.8317 6.63338ZM24.5024 11.4568C24.5092 11.4709 24.5083 11.4833 24.5168 11.4974C25.4585 13.0642 26.2263 14.7328 26.81 16.4773C26.1457 16.7293 25.4865 16.999 24.8392 17.3005C23.3859 17.977 21.9835 18.7825 20.6524 19.7012C19.837 18.4606 18.9496 17.2722 17.9731 16.1661C17.9426 16.1316 17.9087 16.1139 17.8756 16.0927C20.0449 14.4887 22.2652 12.9564 24.5024 11.4568ZM17.2825 16.541C17.2927 16.6223 17.3182 16.7037 17.3852 16.7797C18.3303 17.8487 19.1872 18.9947 19.9728 20.1945C17.9103 21.7092 16.0362 23.5024 14.4684 25.5608C14.4031 25.6466 14.3462 25.7377 14.2826 25.8243C13.1212 24.4892 11.9597 23.1549 10.7991 21.8197C10.8271 21.795 10.8534 21.7693 10.8814 21.7446C12.9362 19.9063 15.0835 18.1883 17.2825 16.541ZM10.173 22.3909C11.3752 23.773 12.5773 25.155 13.7795 26.537C12.6715 28.1463 11.7468 29.8687 10.9866 31.6734C10.9807 31.6672 10.9798 31.661 10.9739 31.6548C9.26436 30.0296 7.4963 28.4726 5.6782 26.98C7.08483 25.3548 8.60431 23.8313 10.173 22.3909ZM9.69958 35.044C7.39365 35.2421 5.07583 35.2288 2.77414 34.9839C2.2651 34.93 1.7111 34.9194 1.21988 34.7637C0.511468 34.5392 1.01796 33.7106 1.25042 33.2685C1.75267 32.3127 2.3194 31.3958 2.93024 30.5115C3.61829 29.5159 4.35979 28.5592 5.13438 27.6299C6.93637 29.1118 8.68999 30.6557 10.3859 32.2676C10.486 32.3631 10.598 32.394 10.7041 32.3825C10.3579 33.2588 10.0423 34.1483 9.76321 35.0529C9.7403 35.0511 9.72334 35.0423 9.69958 35.044ZM69.5844 56.3288C70.1104 61.9533 70.6364 67.5787 71.1624 73.2032C71.2803 74.4632 71.3982 75.7223 71.5153 76.9823C63.0865 78.1247 54.5915 78.5182 46.1084 78.9444C41.8062 79.161 37.5184 79.2662 33.2154 78.9841C28.9157 78.7021 24.6203 78.3281 20.3249 77.9868C15.8666 77.6322 11.3828 77.2272 7.03732 76.0839C7.14592 65.1462 7.19428 54.0997 8.81471 43.2681C9.53584 38.4491 10.6863 33.6054 13.0185 29.3364C13.4563 28.5362 13.945 27.7723 14.4616 27.0313C14.661 26.9827 14.8196 26.7705 14.7967 26.5432C16.435 24.3062 18.4236 22.3609 20.6481 20.7542C20.7788 20.7313 20.8942 20.6482 20.9603 20.5359C21.3438 20.2671 21.7298 20.0027 22.126 19.7542C26.1254 17.2439 30.6812 15.8203 35.3253 15.4269C40.3198 15.0042 45.5935 15.5993 50.3173 17.3854C52.658 18.2705 54.7536 19.6393 56.7422 21.1831C58.6664 22.6765 60.638 24.208 62.3425 25.9738C65.9066 29.6662 67.2352 34.9892 67.9588 40.0195C68.7343 45.4168 69.0762 50.8989 69.5844 56.3288ZM76.3664 35.1616C75.9448 35.3747 75.3127 35.3402 74.8538 35.3906C72.5639 35.6418 70.258 35.6603 67.9631 35.4729C67.7934 34.7531 67.6051 34.0396 67.3879 33.3375C67.4524 33.3357 67.5185 33.3207 67.5872 33.2765C69.5572 32.0121 71.5272 30.7467 73.4972 29.4823C73.8408 29.9324 74.1945 30.3745 74.5178 30.8387C75.132 31.7203 75.7021 32.6354 76.2086 33.5886C76.4428 34.0298 76.9993 34.8415 76.3664 35.1616Z" fill="white"/>
<path d="M35.9764 40.074C14.0649 41.1872 15.9221 74.3744 15.9221 74.3744C15.9221 74.3744 37.747 77.0968 56.0308 74.3744C56.0308 74.3744 58.257 38.9413 35.9764 40.074ZM24.7131 51.1169C21.7607 56.6211 19.9358 62.7363 19.3895 69.0178C19.3411 69.5704 18.508 69.5739 18.5563 69.0178C19.1163 62.5789 20.9658 56.3231 23.9937 50.6792C24.2559 50.1902 24.9753 50.6288 24.7131 51.1169ZM27.383 47.9125C27.1141 48.1928 26.846 48.4722 26.5771 48.7525C26.4973 48.8356 26.393 48.8745 26.2827 48.8798C26.1715 48.8851 26.0672 48.8285 25.9883 48.7525C25.9119 48.6791 25.8661 48.5518 25.8661 48.4457C25.8661 48.3343 25.9128 48.2175 25.9883 48.1388C26.2572 47.8585 26.5253 47.5791 26.7943 47.2989C26.874 47.2157 26.9784 47.1768 27.0886 47.1715C27.1998 47.1662 27.3041 47.2228 27.383 47.2989C27.4594 47.3722 27.5052 47.4996 27.5052 47.6057C27.5052 47.7171 27.4585 47.8338 27.383 47.9125ZM52.6016 63.4905C51.6319 58.1702 50.5798 52.5183 47.1608 48.2423C46.8198 47.8161 47.406 47.1989 47.7496 47.6286C51.2755 52.0373 52.4039 57.767 53.405 63.2598C53.5043 63.8062 52.7008 64.0388 52.6016 63.4905Z" fill="white"/>
<path d="M23.9936 50.6773C20.9657 56.3212 19.117 62.5779 18.5562 69.0159C18.5079 69.572 19.341 69.5685 19.3893 69.0159C19.9357 62.7344 21.7598 56.6192 24.713 51.115C24.9752 50.6278 24.2557 50.1892 23.9936 50.6773Z" fill="white"/>
<path d="M27.0883 47.1712C26.978 47.1766 26.8736 47.2155 26.7939 47.2986C26.5249 47.5789 26.2568 47.8583 25.9879 48.1386C25.9124 48.2173 25.8657 48.334 25.8657 48.4454C25.8657 48.5515 25.9107 48.6788 25.9879 48.7522C26.0668 48.8283 26.1711 48.8849 26.2823 48.8796C26.3926 48.8742 26.4969 48.8353 26.5767 48.7522C26.8456 48.4719 27.1137 48.1925 27.3827 47.9122C27.4582 47.8335 27.5048 47.7168 27.5048 47.6054C27.5048 47.4993 27.459 47.372 27.3827 47.2986C27.3029 47.2217 27.1994 47.1659 27.0883 47.1712Z" fill="white"/>
<path d="M47.1606 48.2402C50.5797 52.5163 51.6317 58.1682 52.6014 63.4885C52.7015 64.0367 53.5041 63.8041 53.4048 63.2577C52.4037 57.765 51.2754 52.0361 47.7494 47.6266C47.4058 47.1968 46.8196 47.814 47.1606 48.2402Z" fill="white"/>
<path d="M9.97635 53.9091C9.39265 58.9933 9.18819 64.1156 9.36551 69.2325C9.38502 69.7895 10.2181 69.7922 10.1986 69.2325C10.0213 64.1156 10.2258 58.9933 10.8095 53.9091C10.8723 53.3556 10.0391 53.36 9.97635 53.9091Z" fill="white"/>
<path d="M10.881 47.1865C10.6508 47.1317 10.4419 47.259 10.368 47.4898C10.1625 48.1299 10.086 48.8232 10.1514 49.4952C10.1633 49.6128 10.1905 49.7153 10.2737 49.802C10.3459 49.8772 10.4648 49.9337 10.5685 49.9293C10.7757 49.9196 11.0084 49.7374 10.9855 49.4952C10.9549 49.183 10.9549 48.8683 10.9872 48.5561C10.988 48.55 10.9897 48.5296 10.9914 48.5119C10.9957 48.4792 11.0008 48.4456 11.0059 48.4129C11.0178 48.3386 11.0314 48.2644 11.0466 48.191C11.0798 48.0318 11.1222 47.8753 11.1715 47.7214C11.2411 47.5048 11.0925 47.2369 10.881 47.1865Z" fill="white"/>
<path d="M65.5053 42.5734C65.0166 37.6271 63.6125 32.8356 61.3524 28.4552C61.0987 27.9627 60.3793 28.4004 60.6329 28.8929C62.8193 33.1309 64.1987 37.7854 64.6722 42.5725C64.7273 43.1234 65.5604 43.1296 65.5053 42.5734Z" fill="white"/>
<path d="M65.941 47.4993C65.9079 47.3923 65.8442 47.2977 65.749 47.2402C65.7015 47.2084 65.6497 47.1916 65.5936 47.189C65.5384 47.1757 65.4823 47.1783 65.4271 47.1969C65.3261 47.2305 65.2292 47.296 65.1783 47.3959C65.1273 47.4967 65.1018 47.6187 65.1366 47.7301C65.202 47.9405 65.2675 48.151 65.3328 48.3614C65.366 48.4684 65.4297 48.563 65.5248 48.6205C65.5724 48.6523 65.6242 48.6691 65.6794 48.6718C65.7346 48.685 65.7906 48.6824 65.8459 48.6638C65.9469 48.6302 66.0438 48.5648 66.0947 48.4649C66.1457 48.3641 66.1711 48.2421 66.1363 48.1306C66.0718 47.9202 66.0064 47.7098 65.941 47.4993Z" fill="white"/>
</svg>
