<svg width="150" height="80" viewBox="0 0 150 80" fill="none" xmlns="http://www.w3.org/2000/svg">
<path d="M108.124 19.8268C108.376 20.1684 108.597 20.4965 108.987 20.1526C109.303 19.8743 109.533 19.4874 109.845 19.1979C110.425 18.6583 111.102 18.2409 111.81 17.906C112.649 17.509 113.536 17.2251 114.431 16.9932C116.595 16.4332 118.893 16.0622 120.7 14.7093C122.271 13.5317 123.326 11.646 123.528 9.65288C123.675 8.20495 123.307 6.59188 122.179 5.7186C120.731 4.59759 118.63 5.09871 117.083 6.06814C115.625 6.98101 114.388 8.26491 113.509 9.77279C113.617 8.23324 113.577 6.37695 112.309 5.5591C111.876 5.28083 111.355 5.17563 110.846 5.18241C108.838 5.21069 107.135 6.93124 106.487 8.89272C105.839 10.8542 106.043 13.0023 106.398 15.0419C106.691 16.7115 107.112 18.4524 108.124 19.8268Z" fill="white"/>
<path d="M47.741 15.0408C48.5728 15.0408 49.2467 14.3451 49.2467 13.4854C49.2467 12.6268 48.5728 11.9312 47.741 11.9312C46.9093 11.9312 46.2354 12.6268 46.2354 13.4854C46.2354 14.344 46.9093 15.0408 47.741 15.0408Z" fill="white"/>
<path d="M38.5301 11.9312C39.1865 11.9312 39.719 11.3815 39.719 10.7039C39.719 10.0263 39.1865 9.47656 38.5301 9.47656C37.8737 9.47656 37.3411 10.0263 37.3411 10.7039C37.3422 11.3815 37.8737 11.9312 38.5301 11.9312Z" fill="white"/>
<path d="M146.757 17.7499C147.349 15.3835 147.318 12.8869 146.66 10.5386C146.493 9.93791 145.582 10.1936 145.752 10.7976C146.363 12.9819 146.4 15.2884 145.848 17.4909C145.696 18.0972 146.605 18.3562 146.757 17.7499Z" fill="white"/>
<path d="M148.87 12.185C148.87 12.8626 148.87 13.5391 148.87 14.2155C148.87 14.47 149.087 14.7133 149.341 14.7019C149.597 14.6906 149.813 14.4881 149.813 14.2155C149.813 13.5391 149.813 12.8615 149.813 12.185C149.813 11.9305 149.596 11.6873 149.341 11.6986C149.085 11.7111 148.87 11.9124 148.87 12.185Z" fill="white"/>
<path d="M136.947 15.4614C136.192 13.0746 136.105 10.5238 136.712 8.09172C136.864 7.48541 135.955 7.22636 135.804 7.83268C135.156 10.4254 135.232 13.173 136.038 15.7193C136.226 16.3132 137.136 16.0587 136.947 15.4614Z" fill="white"/>
<path d="M133.742 13.1564C133.961 13.0828 134.17 12.8102 134.071 12.558C133.988 12.3487 133.92 12.1338 133.87 11.9143C133.845 11.8046 133.825 11.6937 133.808 11.5817C133.804 11.5614 133.803 11.5568 133.802 11.5523C133.802 11.5467 133.802 11.541 133.8 11.5184C133.794 11.4618 133.789 11.4064 133.786 11.3498C133.77 11.1327 133.771 10.9143 133.788 10.6971C133.791 10.6485 133.797 10.601 133.801 10.5523C133.802 10.5388 133.802 10.5388 133.803 10.5309C133.808 10.5014 133.812 10.472 133.818 10.4426C133.836 10.3318 133.859 10.2209 133.887 10.1112C133.947 9.86459 133.81 9.57161 133.558 9.51279C133.313 9.4551 133.042 9.58858 132.978 9.85215C132.741 10.8284 132.795 11.8815 133.163 12.8159C133.254 13.0523 133.48 13.2446 133.742 13.1564Z" fill="white"/>
<path d="M15.9906 17.5997C11.6 17.5997 8.04004 19.4175 8.04004 21.6606C8.04004 22.4807 8.51996 23.2432 9.33847 23.8812C10.6281 29.5292 16.7105 31.5042 21.6665 32.1004C24.8693 32.4861 28.0852 32.2927 31.2639 31.7848C34.3856 31.2859 37.6092 30.6049 40.5688 29.4466C41.1846 29.2057 41.7872 28.9319 42.3789 28.6367C42.895 30.5314 43.4374 32.4182 43.9754 34.3062C43.9348 34.3062 43.8965 34.3017 43.8515 34.313C42.8676 34.5766 41.8004 34.9351 41.3084 35.9408C41.1177 36.3322 41.0553 36.7745 41.1254 37.1862C41.1287 37.2021 41.1243 37.2156 41.1287 37.2315C41.4201 38.3174 41.6524 39.4226 41.9943 40.4938C42.2715 41.3603 42.5433 42.4055 43.4363 42.7845C44.2855 43.1453 45.4053 42.9575 46.2939 42.8761C46.3608 42.8704 46.4276 42.8569 46.4944 42.8501C48.538 49.5558 50.7064 56.2219 53.0359 62.828C54.0615 65.7352 55.1233 68.6288 56.2036 71.5156C55.0192 71.3742 53.8095 71.8538 54.2401 73.1897C54.56 74.1818 55.6152 74.7745 56.505 75.1128C57.6171 75.5358 58.8136 75.5641 59.9543 75.2564C60.2041 75.1897 60.3466 74.9103 60.283 74.658C59.6519 72.1174 58.9342 69.5824 58.4038 67.0168C57.9447 64.8008 58.0006 61.8066 60.443 60.8654C62.6596 60.0102 64.9168 61.2715 66.5998 62.7059C68.2566 64.1176 69.7216 65.7793 70.9367 67.6073C72.2428 69.5733 73.2465 71.7237 73.9543 73.9906C73.3747 73.8741 72.7951 73.9556 72.3732 74.5144C71.7103 75.391 72.4313 76.3684 73.1917 76.8582C75.0205 78.0346 77.4771 76.9317 77.9055 74.7587C78.1575 73.4771 77.8463 72.0099 77.6798 70.7317C77.4848 69.2408 77.236 67.7578 76.9281 66.2861C76.3529 63.5384 75.5651 60.8462 74.6041 58.2184C76.3507 58.5567 78.1433 58.4684 79.8208 57.8055C80.7478 57.439 81.6332 56.878 82.2939 56.1269C93.948 57.9877 105.805 58.4051 117.551 57.2841C118.432 57.2004 119.31 57.0827 120.189 56.9809C120.772 59.2885 121.354 61.5973 121.937 63.9049C122.228 65.0531 122.517 66.2024 122.807 67.3505C122.965 67.9772 123.124 68.6039 123.282 69.2294C123.344 69.4783 123.542 69.9715 123.585 70.3912C122.579 69.7475 121.006 70.5066 121.001 71.9262C120.996 74.1241 123.565 74.6309 125.018 73.5257C125.872 72.8764 126.377 71.8923 126.819 70.924C127.374 69.7057 127.889 68.4659 128.375 67.2159C129.34 64.7307 130.156 62.1889 130.845 59.6075C135.089 64.3857 139.767 68.7374 144.803 72.6219C144.242 72.7192 143.708 72.9024 143.312 73.3741C142.819 73.9612 142.64 74.9137 143.066 75.5901C143.537 76.3356 144.609 76.4102 145.383 76.3175C146.355 76.2021 147.261 75.7417 148.003 75.0935C149.967 73.3775 150.148 70.5145 149.926 68.0507C149.656 65.0418 149.147 62.0385 148.69 59.0555C147.825 53.3962 146.874 47.5943 143.75 42.7268C141.684 39.5085 138.948 36.8084 135.857 34.6501C138.892 31.5732 140.881 27.4976 141.897 23.2319C142.924 18.9198 143 14.412 142.588 9.99127C142.504 9.07953 142.389 8.13951 141.941 7.34881C141.936 7.34089 141.932 7.33297 141.927 7.32505C141.285 6.21762 139.614 6.79565 139.677 8.08408C139.757 9.73675 140.129 11.3917 140.36 13.0398C140.933 17.1438 140.614 21.3778 139.433 25.3415C138.481 28.5337 136.866 31.6547 134.244 33.5924C133.638 33.2203 133.024 32.8617 132.397 32.5291C127.472 29.9127 121.912 28.3822 116.354 28.4885C109.514 28.4523 102.674 28.4161 95.8337 28.3799C89.5651 28.3471 82.9973 28.6118 77.075 26.1424C74.8583 25.2182 72.7764 23.8947 71.0835 22.1561C68.8581 18.2094 66.3446 14.4583 63.4014 11.0195C62.7221 10.2254 61.5968 9.39852 60.787 10.049C60.6654 10.1474 60.5767 10.2718 60.5 10.4075C58.131 8.06372 55.2284 6.37259 52.0947 5.488C52.1626 5.38732 52.19 5.25723 52.1451 5.10226C51.8328 4.04007 51.3452 2.65211 50.4094 2.00393C49.9361 1.67702 49.2535 1.70077 48.8075 2.01977C48.5621 1.63516 48.2991 1.263 48.0022 0.919122C47.6066 0.46099 47.1047 0.0300054 46.4824 0.00172563C45.4918 -0.043522 44.7994 0.808263 44.8202 1.70869C44.0849 1.6872 43.3596 2.01298 42.9235 2.68378C42.4304 3.4428 42.506 4.47671 43.0002 5.21086C36.9364 6.47553 31.6156 10.1666 26.2762 13.2231C23.104 15.0386 19.8245 16.689 16.2974 17.6053C16.1955 17.6064 16.0947 17.5997 15.9906 17.5997ZM44.1025 35.2519C44.1518 35.2383 44.1868 35.2134 44.2241 35.1908C44.4224 35.8831 44.6098 36.5788 44.8114 37.2699C44.0992 37.4679 42.4567 38.0595 42.0798 37.1421C42.0655 37.0867 42.0524 37.0301 42.037 36.9735C42.037 36.9735 42.0359 36.9713 42.0348 36.969C41.819 35.9148 43.3979 35.4408 44.1025 35.2519ZM126.548 69.2C125.986 70.5066 125.36 72.5348 123.909 73.0483C123.121 73.3277 122.061 73.063 121.959 72.0676C121.869 71.1875 122.979 70.6921 123.37 71.5699C123.504 71.8696 123.906 71.8595 124.111 71.6683C124.865 70.9613 124.406 69.8267 124.19 68.9727C123.847 67.6152 123.505 66.2578 123.162 64.9004C122.487 62.2251 121.811 59.5487 121.136 56.8735C123.342 56.6042 125.543 56.2999 127.735 55.9289C128.507 56.8859 129.294 57.8282 130.098 58.7546C129.174 62.3235 128 65.8223 126.548 69.2ZM83.6077 28.8459C86.8817 29.3018 90.1886 29.3244 93.4856 29.3425C97.0368 29.3618 100.587 29.3799 104.137 29.3991C108.21 29.4206 112.283 29.4421 116.356 29.4636C124.809 29.3018 133.655 32.9228 139.644 39.1002C143.109 42.6736 145.265 46.9857 146.431 51.8725C147.016 54.3237 147.401 56.8214 147.782 59.3134C148.191 61.9808 148.603 64.6549 148.909 67.3381C149.199 69.8652 149.301 73.063 147 74.6659C146.306 75.149 144.79 75.8028 143.985 75.1919C143.543 74.856 143.83 74.1467 144.181 73.8673C144.68 73.4725 145.422 73.5246 146.015 73.4477C146.485 73.3877 146.648 72.8379 146.252 72.5404C138.949 67.0496 132.4 60.5328 126.797 53.2174C126.421 52.7265 125.758 53.4188 126.13 53.9052C126.429 54.2943 126.74 54.671 127.043 55.0556C115.139 57.0296 103.004 57.4526 90.9994 56.292C88.2919 56.0307 85.5953 55.6608 82.9075 55.2389C82.959 55.1416 83.0149 55.0466 83.0587 54.9436C83.9177 52.9618 83.1781 50.6689 82.4363 48.6361C79.4505 40.4587 76.3901 32.1626 72.3634 24.5056C75.6023 26.9591 79.605 28.2894 83.6077 28.8459ZM73.5018 57.9458C74.8693 61.5837 75.8916 65.354 76.5118 69.2046C76.6805 70.2498 76.8186 71.3007 76.927 72.3549C77.0213 73.2678 77.2054 74.3164 76.7758 75.1671C76.3584 75.9928 75.4774 76.477 74.5833 76.3548C74.1932 76.3016 73.5358 76.0924 73.309 75.7191C72.5189 74.4193 74.3367 75.1139 74.6282 75.2666C75.1673 75.5505 75.645 74.7112 75.1038 74.4261C75.0731 74.4103 75.0402 74.3956 75.0084 74.3798C75.0227 74.3085 75.0249 74.2316 74.9997 74.1433C73.5763 69.2962 70.7515 64.8121 66.865 61.6867C65.0746 60.2467 62.8229 59.1562 60.5186 59.8213C58.3403 60.4503 57.2391 62.5532 57.2095 64.7873C57.1876 66.4433 57.673 68.07 58.0675 69.657C58.4608 71.2373 58.8531 72.8176 59.2465 74.3979C58.1705 74.5822 57.0649 74.4273 56.105 73.856C55.6766 73.6015 54.4505 72.5291 55.6591 72.4737C55.9615 72.459 56.3121 72.4646 56.6189 72.5574C56.7121 72.6739 56.8402 72.7373 56.9739 72.744C57.0583 72.8119 57.1427 72.8809 57.2007 72.9861C57.501 73.5302 58.3162 73.0404 58.0149 72.4952C57.8724 72.2384 57.6292 72.0257 57.3322 71.8629C53.7284 62.2658 50.4401 52.5466 47.4455 42.729C48.1577 42.6261 48.8678 42.5005 49.5668 42.3275C50.0753 42.2008 50.5716 42.0447 51.0625 41.8784C51.3134 42.6781 51.5643 43.4779 51.8153 44.2776C51.3835 44.1374 50.9365 44.0774 50.4851 44.2222C49.706 44.4722 49.2414 45.2018 49.3828 46.0412C49.5263 46.8862 50.1991 47.4359 50.8828 47.8352C51.7112 48.3194 52.5921 48.7096 53.495 49.0207C53.5399 49.0366 53.5783 49.0332 53.6188 49.0354C53.8533 49.2334 54.2774 49.2119 54.3902 48.8194C54.6948 47.7662 54.9983 46.7131 55.3029 45.66C55.5681 44.7414 56.0831 43.5865 55.5528 42.6702C55.3413 42.3049 54.9885 42.0254 54.571 41.9836C54.0735 41.9338 53.644 42.2144 53.2956 42.5537C53.0052 42.8365 52.7652 43.1736 52.5746 43.5367C52.3664 42.8738 52.1582 42.2098 51.95 41.5469C55.1101 40.3128 57.9513 38.3627 60.7903 36.4487C61.0599 38.15 61.3809 39.8275 61.7579 41.4632C62.8119 46.0344 64.3624 50.6564 67.4699 54.0896C69.0904 55.8791 71.2271 57.2637 73.5018 57.9458ZM53.6309 48.0366C53.0315 47.8251 52.4464 47.5785 51.8799 47.2821C51.3923 47.0264 50.7984 46.7516 50.4763 46.2753C50.1936 45.8568 50.2319 45.3353 50.7349 45.1588C51.2827 44.9665 51.869 45.3082 52.3423 45.5582C52.6403 45.7154 53.0162 45.5016 53.0326 45.1668C53.0348 45.1577 53.0425 45.1509 53.0436 45.1407C53.1312 44.4824 53.3821 43.8636 53.827 43.3772C53.9837 43.2053 54.2795 42.8614 54.5403 42.9655C54.7967 43.0673 54.8471 43.4304 54.8351 43.6713C54.8153 44.0593 54.6674 44.4451 54.5611 44.8138C54.4428 45.2233 54.3245 45.6328 54.2061 46.0423C54.0144 46.7074 53.8226 47.3726 53.6309 48.0366ZM44.0334 4.95407C43.5667 4.55137 43.3618 3.8489 43.6784 3.27765C43.9765 2.73807 44.7095 2.50731 45.2563 2.7607C45.6463 2.94169 46.1854 2.54238 45.9016 2.09443C45.7077 1.789 45.6803 1.39196 45.9772 1.13857C46.2906 0.870481 46.6698 0.979074 46.9623 1.22002C47.5847 1.73245 48.0482 2.52089 48.4273 3.23014C48.6464 3.63963 49.3367 3.47222 49.305 2.98468C49.2918 2.77993 49.4967 2.6917 49.6797 2.71885C49.9613 2.7607 50.1848 3.08196 50.3284 3.30706C50.7152 3.91112 50.9935 4.57965 51.2039 5.26968C49.0376 4.76969 46.7815 4.64187 44.5309 4.94729C44.3808 4.96765 44.234 4.99706 44.0849 5.02082C44.0652 4.99706 44.0564 4.97444 44.0334 4.95407ZM33.3732 10.2028C39.1728 6.95063 45.5806 4.49481 52.1933 6.49928C55.2076 7.41215 57.9776 9.1293 60.1822 11.4335C59.6508 14.326 59.5281 17.2988 59.8228 20.2274C59.7056 23.2533 59.7702 26.3788 59.9981 29.5032C57.0594 31.9092 53.8073 33.9137 50.3371 35.3887C48.8349 36.0267 47.2899 36.5494 45.7241 36.9962C44.8728 34.0777 44.04 31.1524 43.2423 28.2181C43.239 28.2057 43.2314 28.1989 43.227 28.1876C44.9889 27.2023 46.5952 25.9501 47.9276 24.3879C48.0339 24.6866 48.1106 24.9942 48.138 25.3065C48.161 25.5678 48.3385 25.7929 48.6092 25.7929C48.847 25.7929 49.1033 25.57 49.0803 25.3065C48.9127 23.3699 47.6438 21.6731 45.8666 21.0238C45.6266 20.9367 45.3505 21.1233 45.2869 21.3631C45.2157 21.6324 45.3746 21.8733 45.6157 21.9615C46.3608 22.233 47.005 22.7862 47.4619 23.4671C43.8066 27.9263 38.2447 29.4432 32.8954 30.5065C29.9008 31.1027 26.8426 31.4545 23.7911 31.3052C20.9707 31.1683 17.8939 30.7362 15.3124 29.4862C13.2272 28.4772 11.4214 26.8109 10.5635 24.6221C11.9847 25.3019 13.889 25.7205 15.9895 25.7205C20.3801 25.7205 23.9401 23.9026 23.9401 21.6595C23.9401 19.9175 21.7881 18.4356 18.7726 17.8587C23.9445 16.0533 28.5914 12.8837 33.3732 10.2028Z" fill="white"/>
<path d="M28.5623 71.9806C30.1237 73.3528 32.5638 73.0044 34.1121 71.8019C35.8499 70.4501 36.2499 67.8755 35.3941 65.8688C34.8484 64.5883 33.5237 63.7241 32.2527 63.887C32.8608 62.5555 33.2925 61.128 32.9846 59.6484C32.6526 58.0579 31.4813 56.7819 29.853 56.7231C28.376 56.6688 26.9548 57.5308 26.3467 58.9301C25.7813 60.2298 25.9424 61.6992 26.5735 62.9232C20.8604 63.939 15.1188 64.7783 9.35425 65.4186C8.7001 63.7071 7.22963 62.3463 5.45456 61.9832C3.23243 61.5284 1.1407 62.913 0.315618 65.0396C-0.462345 67.0464 0.221397 69.3133 2.10714 70.3223C2.59912 70.5847 3.1404 70.7431 3.69155 70.8132C2.10385 72.7306 1.56255 75.4952 3.17765 77.7316C4.2646 79.2372 6.13829 80.1908 7.96705 79.968C9.63803 79.7643 10.9386 78.5189 11.4734 76.9036C11.8985 75.6197 11.8174 74.2317 11.2148 73.0926C16.666 71.9591 22.1183 70.8245 27.5695 69.6911C27.5728 70.5474 27.9224 71.4184 28.5623 71.9806ZM27.6035 68.6923C21.9353 69.871 16.2682 71.0497 10.6001 72.2284C10.4993 72.1175 10.4018 72.0044 10.2878 71.9037C9.82651 71.4987 9.3126 72.3143 9.76952 72.7159C11.0055 73.8018 11.0548 75.7656 10.3415 77.175C9.45724 78.9227 7.52111 79.4261 5.81287 78.6727C3.98192 77.8651 2.84236 75.9228 3.20943 73.8754C3.42638 72.665 4.08381 71.5791 4.98449 70.7895C5.81615 70.6447 6.5985 70.2567 7.18142 69.5701C7.45426 69.2488 7.27347 68.5848 6.77163 68.7318C6.00024 68.9581 5.28693 69.3563 4.65798 69.863C3.99945 69.9501 3.30914 69.8393 2.68457 69.5384C1.10564 68.7771 0.572028 66.9876 1.20974 65.3541C1.89566 63.5974 3.66963 62.5035 5.48086 62.9843C7.17485 63.4334 8.46452 64.9559 8.74064 66.7195C8.83707 67.3382 9.76076 67.1414 9.66434 66.5238C9.65557 66.4695 9.63694 66.4186 9.62599 66.3643C16.1959 65.6324 22.7374 64.6573 29.2394 63.439C29.8366 63.327 29.647 62.3746 29.0499 62.4854C28.5524 62.5782 28.0539 62.6607 27.5564 62.7512C26.281 60.6981 27.2222 57.4403 29.9692 57.7084C31.3213 57.8407 32.0598 59.1292 32.1376 60.4289C32.2264 61.9187 31.5218 63.318 30.8567 64.5894C30.6102 65.06 31.1394 65.5973 31.5646 65.2195C32.8564 64.0736 34.3827 65.5012 34.7268 66.8326C35.1267 68.3812 34.7706 70.1051 33.4832 71.0813C32.3809 71.9161 30.6989 72.2317 29.4816 71.475C28.4231 70.8166 28.0845 69.1447 29.166 68.3337C29.6558 67.966 29.0236 67.2443 28.536 67.6097C28.1536 67.8959 27.9004 68.2771 27.7449 68.6956C27.6999 68.6877 27.655 68.6809 27.6035 68.6923Z" fill="white"/>
</svg>
