<svg width="19" height="14" viewBox="0 0 19 14" fill="none" xmlns="http://www.w3.org/2000/svg">
<path d="M16.0307 9.57534C15.862 6.8111 11.4802 4.69932 9.0903 5.59197C9.07002 5.5999 9.05043 5.60951 9.03175 5.62071C6.25397 5.55019 2.34572 7.53496 3.62928 10.8565C4.52232 13.1672 8.35153 13.4094 10.4085 13.4095C12.6717 13.4096 16.2029 12.3956 16.0307 9.57534ZM10.4145 11.9992C10.5731 12.0002 10.7322 11.9971 10.8916 11.9915C10.9288 11.9948 10.9663 11.9931 11.0031 11.9865C11.0917 11.9826 11.1807 11.9771 11.2695 11.9715C11.272 11.9745 11.2736 11.9785 11.2761 11.9814C10.7897 12.0463 10.299 12.0742 9.80828 12.0647C10.0103 12.0455 10.2123 12.0276 10.4145 11.9992ZM8.19873 12.5733C8.48912 12.6289 8.78079 12.6771 9.07392 12.7094C8.75939 12.6935 8.44561 12.6652 8.13332 12.6245C8.15793 12.6112 8.17863 12.5926 8.19873 12.5733ZM4.83988 1.14011C3.69773 -0.35578 1.49161 -0.306253 0.434009 1.2983C-0.553082 2.79575 0.287392 4.61292 1.51643 5.67612C2.31159 6.36399 3.63065 6.74529 4.22967 5.91639C4.27871 5.90974 4.32566 5.89232 4.36717 5.86539C6.03321 4.82142 5.9322 2.57068 4.83988 1.14011ZM4.98267 3.80197C5.03827 3.58317 5.05455 3.35299 5.04279 3.11968C5.05073 3.10791 5.0575 3.09575 5.06387 3.08281C5.09692 3.39222 5.07574 3.70056 4.9963 3.99252C4.99442 3.92884 4.98987 3.86527 4.98267 3.80197ZM7.14789 0.354161C7.05747 0.414475 7.02295 0.516568 7.0307 0.613855C6.26623 1.43422 6.10392 2.76319 6.51572 3.78422C7.01256 5.016 8.47402 5.19321 9.48935 4.4615C11.5321 2.98935 9.5378 -1.24195 7.14789 0.354161ZM8.10203 0.720556C8.06132 0.702195 8.01922 0.687109 7.97611 0.675443C8.39399 0.624937 8.75715 0.735954 9.06206 1.03164L9.05754 1.03036C8.99546 0.977406 8.91662 0.953771 8.83443 0.95328C8.64711 0.782538 8.40478 0.691527 8.10203 0.720556ZM12.9138 0.4539C12.8153 0.467336 12.7608 0.526277 12.7395 0.598948C12.7019 0.602086 12.6642 0.611697 12.6281 0.632881C12.5385 0.685349 12.501 0.771456 12.4818 0.86433C12.4246 0.830201 12.3527 0.825493 12.2806 0.874921C10.6333 2.0052 10.5898 5.37915 13.1875 4.81573C15.4242 4.33057 15.4409 0.108884 12.9138 0.4539ZM18.8524 3.77892C18.4968 2.86058 17.2976 2.15701 16.5034 3.03799C16.4932 3.04936 16.4871 3.06221 16.4799 3.07477C16.2526 3.08526 16.0463 3.16254 15.8958 3.31622C15.2882 3.63632 14.9346 4.38363 14.9712 5.12691C15.0416 6.5566 16.6037 6.87661 17.7289 6.45539C18.8102 6.05065 19.2578 4.82554 18.8524 3.77892Z" fill="#D4E391"/>
</svg>
